<svg width="53" height="63" fill="none" xmlns="http://www.w3.org/2000/svg"><path fill-rule="evenodd" clip-rule="evenodd" d="m34.316 21.035 16.78 31.036C55.16 58.106 52.504 63 45.164 63H7.946c-7.341 0-10.09-4.953-6.142-11.064l15.447-30.9V5.279h-1.52a1.32 1.32 0 0 1-1.33-1.313V1.313A1.32 1.32 0 0 1 15.73 0h20.245c.735 0 1.33.588 1.33 1.313v2.652a1.32 1.32 0 0 1-1.33 1.313h-1.66v15.757Zm-11.75 1.226-.548 1.099-6.723 13.447h21.521L29.625 23.51l-.626-1.159V5.277h-6.432v16.984Z" fill="#FFC59E"/></svg>