<svg width="88" height="69" fill="none" xmlns="http://www.w3.org/2000/svg"><path fill-rule="evenodd" clip-rule="evenodd" d="M.075 29.703c0-1.136.735-2.54 2.205-4.214 1.732-1.732 2.831-2.867 3.297-3.406 1.586-1.848 3.166-3.696 4.738-5.545 2.24-2.896 3.362-5.036 3.362-6.419 0-1.077-.237-1.855-.71-2.336-.473-.48-1.16-.72-2.063-.72-1.616 0-2.802 1.142-3.559 3.428-.757 2.285-1.877 3.427-3.362 3.427-1.106 0-1.957-.353-2.554-1.059-.597-.706-.895-1.532-.895-2.478 0-2.838 1.03-5.269 3.089-7.292 2.06-2.023 4.64-3.034 7.74-3.034 2.838 0 5.228.902 7.171 2.707 1.943 1.805 2.915 4.148 2.915 7.03 0 1.965-.597 3.98-1.79 6.047-.8 1.398-2.169 3.18-4.105 5.35-2.678 3.012-4.126 4.657-4.344 4.933h7.619c1.048 0 1.867.342 2.456 1.026.59.684.884 1.47.884 2.358 0 .917-.29 1.714-.873 2.39-.582.678-1.404 1.016-2.467 1.016H4.201c-1.193 0-2.18-.298-2.958-.895S.075 30.649.075 29.703Zm25.653-6.44c0-.598.167-1.274.502-2.031.175-.451.473-.968.895-1.55L37.758 3.046c.596-.961 1.306-1.627 2.128-1.998C40.71.677 41.716.49 42.91.49c1.645 0 2.95.499 3.919 1.496.968.997 1.452 2.332 1.452 4.006v13.645h1.506c1.165 0 2.067.258 2.707.775.64.517.96 1.343.96 2.478 0 1.106-.312 1.921-.938 2.445-.626.524-1.535.786-2.729.786h-1.506v2.991c0 2.707-1.165 4.061-3.493 4.061-2.33 0-3.494-1.325-3.494-3.973v-3.079H29.352c-1.222 0-2.161-.327-2.816-.982-.539-.539-.808-1.165-.808-1.878Zm15.566-3.625h-6.702l6.702-11.505v11.505Zm24.14 19.918c0-.917.287-1.714.862-2.39.575-.677 1.4-1.016 2.478-1.016h14.671c1.135 0 2.045.36 2.73 1.081.683.72 1.025 1.525 1.025 2.413a4.81 4.81 0 0 1-.262 1.572c-.058.145-.313.727-.764 1.746L76.022 65.1c-.51 1.164-.975 1.965-1.397 2.401-.655.714-1.543 1.07-2.664 1.07-1.077 0-1.943-.342-2.598-1.026-.655-.684-.982-1.44-.982-2.27 0-.48.043-.863.13-1.147.088-.284.43-1.051 1.027-2.303l8.907-18.907h-9.671c-1.077 0-1.903-.334-2.478-1.004a3.506 3.506 0 0 1-.863-2.358ZM42.569 55.38c-.765 1.594-1.147 2.817-1.147 3.668 0 2.424 1.256 3.635 3.767 3.635.851 0 1.637-.349 2.357-1.048.72-.698 1.681-2.205 2.882-4.519L68.472 22.37c.94-1.79 1.54-3.002 1.802-3.635.502-1.157.753-2.096.753-2.816 0-2.402-1.255-3.603-3.766-3.603-1.07 0-2.052.579-2.947 1.736-.503.633-1.267 1.91-2.293 3.832L43.977 52.629c-.306.634-.775 1.55-1.408 2.751Z" fill="#FFC59E"/></svg>