<svg width="50" height="40" fill="none" xmlns="http://www.w3.org/2000/svg"><path d="M44.22 39.505H5.779A5.784 5.784 0 0 1 0 33.726V10.293a5.784 5.784 0 0 1 5.778-5.778h7.845l.686-2.316C14.59.93 15.748 0 17.111 0h15.778c1.325 0 2.497.925 2.807 2.21l.018.078.626 2.226h7.882A5.784 5.784 0 0 1 50 10.292v23.434a5.786 5.786 0 0 1-5.78 5.779ZM5.779 6.44a3.856 3.856 0 0 0-3.852 3.852v23.434a3.856 3.856 0 0 0 3.852 3.852h38.443a3.856 3.856 0 0 0 3.852-3.852V10.292A3.856 3.856 0 0 0 44.22 6.44h-9.34l-1.054-3.76a.967.967 0 0 0-.938-.755h-15.78a.956.956 0 0 0-.937.755l-1.114 3.76h-9.28Zm19.223 27.243c-6.74 0-12.224-5.483-12.224-12.222 0-6.74 5.484-12.223 12.224-12.223 6.739 0 12.221 5.483 12.221 12.223 0 6.738-5.483 12.222-12.221 12.222Zm0-22.52c-5.678 0-10.298 4.619-10.298 10.297 0 5.678 4.62 10.296 10.298 10.296 5.677 0 10.295-4.619 10.295-10.296 0-5.678-4.619-10.297-10.295-10.297Zm17.976-1.148a1.777 1.777 0 1 0 0 3.554 1.777 1.777 0 0 0 0-3.554Z" fill="#C3B9B5"/></svg>