<svg width="20" height="22" fill="none" xmlns="http://www.w3.org/2000/svg"><path d="M1.429 0h12.137L20 6.168v14.457c0 .76-.64 1.375-1.429 1.375H1.43C.64 22 0 21.385 0 20.625V1.375C0 .615.64 0 1.429 0Z" fill="#E2574C"/><path d="M18.98 6.188H14c-.789 0-1.429-.616-1.429-1.375V.015l6.408 6.173Z" fill="#B53629"/><path d="M13.641 10.425c.24 0 .357-.2.357-.395 0-.202-.123-.396-.357-.396h-1.363c-.266 0-.415.212-.415.447v3.223c0 .288.17.447.4.447.229 0 .4-.16.4-.447v-.885h.824c.256 0 .383-.2.383-.4 0-.197-.127-.392-.383-.392h-.824v-1.202h.978Zm-4.606-.791h-.997c-.271 0-.463.179-.463.444v3.23c0 .328.276.431.474.431h1.046c1.239 0 2.057-.784 2.057-1.995 0-1.28-.77-2.11-2.117-2.11Zm.048 3.31h-.608V10.43h.548c.829 0 1.19.536 1.19 1.275 0 .691-.355 1.239-1.13 1.239ZM5.43 9.633h-.988c-.28 0-.435.177-.435.447v3.223c0 .288.178.447.418.447s.419-.16.419-.447v-.94h.62c.763 0 1.394-.522 1.394-1.36 0-.82-.608-1.37-1.428-1.37Zm-.017 1.973h-.569V10.39h.57c.35 0 .574.264.574.608s-.223.608-.575.608Z" fill="#fff"/></svg>