<svg width="20" height="30" fill="none" xmlns="http://www.w3.org/2000/svg"><path d="M19.527 7.226c-.103-.388-.313-.8-.468-1.162C17.201 1.6 13.142 0 9.865 0 5.477 0 .645 2.942 0 9.006v1.24c0 .05.018.515.043.747.362 2.89 2.642 5.962 4.345 8.852 1.833 3.096 3.734 6.142 5.618 9.187 1.161-1.987 2.319-4 3.454-5.935.309-.568.668-1.136.978-1.678.206-.361.6-.722.78-1.058C17.052 17.006 20 13.626 20 10.297V8.929c0-.36-.447-1.625-.473-1.703Zm-9.582 6.22c-1.29 0-2.701-.646-3.398-2.427-.104-.283-.095-.851-.095-.903v-.8c0-2.27 1.927-3.303 3.604-3.303 2.065 0 3.662 1.652 3.662 3.716 0 2.065-1.708 3.716-3.773 3.716Z" fill="#FFC59E"/></svg>