<svg width="25" height="25" fill="none" xmlns="http://www.w3.org/2000/svg"><path d="m24.44 19.73-3.861-3.862c-.77-.766-2.043-.743-2.839.053l-1.945 1.945-.384-.214c-1.228-.68-2.91-1.613-4.678-3.383-1.774-1.774-2.708-3.458-3.39-4.687-.073-.13-.142-.256-.21-.375l1.305-1.304.642-.642c.797-.798.82-2.07.052-2.839L5.272.56c-.768-.767-2.042-.744-2.84.054L1.346 1.708l.03.03a6.292 6.292 0 0 0-.897 1.581 6.557 6.557 0 0 0-.4 1.604C-.43 9.15 1.5 13.013 6.743 18.253c7.245 7.245 13.084 6.698 13.335 6.671a6.524 6.524 0 0 0 1.61-.404 6.27 6.27 0 0 0 1.575-.893l.024.022 1.102-1.08c.795-.797.818-2.07.051-2.84Z" fill="#FFC59E"/></svg>