<svg width="167" height="49" viewBox="0 0 167 49" fill="none" xmlns="http://www.w3.org/2000/svg">
<path d="M161.059 49H5.84995C2.62499 49 0 46.3932 0 43.2021V5.78935C0 2.597 2.62499 0 5.84995 0H161.059C164.282 0 167 2.597 167 5.78935V43.2021C167 46.3932 164.282 49 161.059 49Z" fill="#A6A6A6"/>
<path d="M166 43.2887C166 45.8916 163.876 48 161.249 48H5.75759C3.13156 48 1 45.8916 1 43.2887V5.71747C1 3.11579 3.13156 1 5.75759 1H161.247C163.876 1 165.999 3.11579 165.999 5.71747L166 43.2887Z" fill="black"/>
<path d="M37.1779 23.7903C37.1427 19.8641 40.3782 17.954 40.5262 17.865C38.6938 15.1814 35.8536 14.8147 34.8556 14.7855C32.4702 14.5333 30.1563 16.2193 28.9412 16.2193C27.7018 16.2193 25.8306 14.8098 23.8139 14.8513C21.2187 14.8915 18.7908 16.4008 17.4593 18.7446C14.7113 23.5235 16.7608 30.5463 19.3936 34.4092C20.7106 36.301 22.2495 38.4133 24.2638 38.339C26.2344 38.2574 26.9706 37.077 29.3487 37.077C31.705 37.077 32.3962 38.339 34.4505 38.2915C36.5655 38.2574 37.897 36.3911 39.168 34.4823C40.6899 32.3139 41.3011 30.1784 41.3254 30.0688C41.2757 30.0517 37.2179 28.4961 37.1779 23.7903Z" fill="white"/>
<path d="M33.2976 12.2448C34.3575 10.9133 35.0827 9.10191 34.8814 7.26367C33.3473 7.33189 31.4288 8.32958 30.324 9.63182C29.3466 10.7793 28.4734 12.6602 28.699 14.429C30.4222 14.5581 32.1916 13.5556 33.2976 12.2448Z" fill="white"/>
<path fill-rule="evenodd" clip-rule="evenodd" d="M63.1701 39H66L60.6355 23H57.3383L52 39H54.7551L56.2318 34.3003H61.6199L63.1701 39ZM59.7508 28.1504L61.1527 32.3283H56.7003L58.0773 28.1504C58.4386 26.8218 58.7016 25.8167 58.8648 25.1362H58.9146C59.3246 26.7184 59.6025 27.7235 59.7508 28.1504Z" fill="white"/>
<path fill-rule="evenodd" clip-rule="evenodd" d="M78.282 36.8503C79.4273 35.6755 80 34.0751 80 32.0504C80 30.2379 79.5091 28.7765 78.5248 27.6649C77.5431 26.5545 76.316 26 74.846 26C72.9657 26 71.5645 26.7096 70.6413 28.1313H70.5893L70.4348 26.2444H68C68.0675 27.5843 68.1026 28.8906 68.1026 30.1635V43H70.8711V36.7288H70.9231C71.6412 37.8552 72.8203 38.4185 74.4616 38.4185C75.9823 38.4185 77.2561 37.8961 78.282 36.8503ZM76.3588 29.2816C76.9068 30.0334 77.1795 30.9886 77.1795 32.1474C77.1795 33.4053 76.8886 34.4177 76.3069 35.1856C75.7264 35.9523 74.9148 36.3369 73.8721 36.3369C72.9839 36.3369 72.2619 36.0391 71.7061 35.4424C71.1503 34.8457 70.8724 34.115 70.8724 33.249V31.264C70.8724 31.0531 70.9153 30.7852 71.001 30.4576C71.1711 29.7555 71.5347 29.1885 72.0905 28.7543C72.6449 28.3238 73.2657 28.1055 73.9487 28.1055C74.9564 28.1055 75.7602 28.4975 76.3588 29.2816Z" fill="white"/>
<path fill-rule="evenodd" clip-rule="evenodd" d="M92.2805 36.8503C93.4273 35.6755 94 34.0751 94 32.0504C94 30.2379 93.5078 28.7765 92.5273 27.6649C91.5429 26.5545 90.3156 26 88.8468 26C86.9649 26 85.5636 26.7096 84.6416 28.1313H84.5896L84.4351 26.2444H82C82.0675 27.5843 82.1026 28.8906 82.1026 30.1635V43H84.8714V36.7288H84.9234C85.6403 37.8552 86.8195 38.4185 88.461 38.4185C89.9818 38.4185 91.2558 37.8961 92.2805 36.8503ZM90.3571 29.2816C90.9052 30.0334 91.1792 30.9886 91.1792 32.1474C91.1792 33.4053 90.8883 34.4177 90.3065 35.1856C89.726 35.9523 88.9143 36.3369 87.8714 36.3369C86.9805 36.3369 86.2584 36.0379 85.7026 35.4424C85.1494 34.8457 84.8714 34.115 84.8714 33.249V31.264C84.8714 31.0531 84.9156 30.7852 85 30.4576C85.1701 29.7555 85.5325 29.1885 86.0883 28.7543C86.6442 28.3238 87.2636 28.1055 87.9481 28.1055C88.9571 28.1055 89.7584 28.4975 90.3571 29.2816Z" fill="white"/>
<path d="M109 34.1246C109 35.5293 108.524 36.6721 107.568 37.5544C106.518 38.5185 105.056 39 103.178 39C101.443 39 100.053 38.6575 99 37.9713L99.5984 35.7663C100.732 36.4686 101.976 36.821 103.331 36.821C104.304 36.821 105.061 36.5952 105.605 36.146C106.146 35.6968 106.416 35.0937 106.416 34.3418C106.416 33.6717 106.194 33.1071 105.747 32.6492C105.302 32.1913 104.56 31.7657 103.523 31.3723C100.701 30.294 99.2907 28.7144 99.2907 26.6372C99.2907 25.2796 99.7849 24.1666 100.774 23.3004C101.76 22.4331 103.076 22 104.721 22C106.188 22 107.406 22.2618 108.379 22.7842L107.733 24.9409C106.825 24.4346 105.797 24.1815 104.648 24.1815C103.74 24.1815 103.03 24.411 102.521 24.8677C102.091 25.2759 101.875 25.7735 101.875 26.3629C101.875 27.0156 102.121 27.5554 102.616 27.9798C103.046 28.3719 103.827 28.7963 104.961 29.2542C106.347 29.8262 107.366 30.495 108.021 31.2619C108.674 32.0263 109 32.983 109 34.1246Z" fill="white"/>
<path d="M117 28.9138H114.185V34.6501C114.185 36.1091 114.681 36.838 115.675 36.838C116.132 36.838 116.51 36.7973 116.81 36.7161L116.88 38.7094C116.377 38.9027 115.715 39 114.894 39C113.886 39 113.098 38.6836 112.529 38.052C111.962 37.4191 111.677 36.3578 111.677 34.8668V28.9114H110V26.9414H111.677V24.7781L114.185 24V26.9414H117V28.9138Z" fill="white"/>
<path fill-rule="evenodd" clip-rule="evenodd" d="M128.386 37.2484C129.461 36.113 130 34.6611 130 32.8927C130 31.1722 129.479 29.7683 128.435 28.6809C127.343 27.5599 125.897 27 124.099 27C122.234 27 120.75 27.5683 119.651 28.7049C118.549 29.8402 118 31.3005 118 33.0833C118 34.787 118.534 36.2005 119.601 37.3203C120.668 38.4401 122.1 39 123.897 39C125.763 39 127.259 38.4173 128.386 37.2484ZM126.446 30.2455C126.935 31.0044 127.176 31.9144 127.176 32.9754C127.176 34.0353 126.923 34.9549 126.421 35.7282C125.833 36.6609 125.017 37.1285 123.978 37.1285C122.917 37.1285 122.094 36.6705 121.506 35.7521C121.017 34.9944 120.776 34.0844 120.776 33.0234C120.776 31.93 121.017 31.0056 121.506 30.2455C122.077 29.3283 122.908 28.8691 124.002 28.8691C125.059 28.8691 125.875 29.3271 126.446 30.2455Z" fill="white"/>
<path d="M139 29.539C138.712 29.4912 138.406 29.4667 138.084 29.4667C137.061 29.4667 136.27 29.8134 135.714 30.5082C135.23 31.1209 134.987 31.8953 134.987 32.8303V39H132.082L132.109 30.9445C132.109 29.5892 132.072 28.3553 132 27.2426H134.532L134.638 29.4924H134.719C135.026 28.7192 135.51 28.0967 136.172 27.6298C136.82 27.2095 137.519 27 138.273 27C138.542 27 138.785 27.0172 139 27.0478V29.539Z" fill="white"/>
<path fill-rule="evenodd" clip-rule="evenodd" d="M150.909 33.6385C150.971 33.3225 151 32.9357 151 32.4768C151 31.0388 150.668 29.8279 150.008 28.8488C149.174 27.6163 147.947 27 146.325 27C144.674 27 143.362 27.6163 142.391 28.8488C141.463 30.0033 141 31.4509 141 33.1892C141 34.96 141.498 36.3715 142.493 37.4227C143.489 38.4738 144.859 39 146.604 39C148.054 39 149.311 38.7633 150.376 38.2876L149.985 36.5097C149.073 36.8737 148.06 37.0551 146.95 37.0551C145.946 37.0551 145.129 36.7859 144.497 36.249C143.8 35.6483 143.438 34.7773 143.409 33.6385H150.909ZM148.131 29.8434C148.47 30.3972 148.633 31.0531 148.616 31.8123V31.8111H143.409C143.485 31.0375 143.732 30.3731 144.148 29.8193C144.656 29.1226 145.321 28.7754 146.138 28.7754C147.033 28.7754 147.698 29.131 148.131 29.8434Z" fill="white"/>
<path d="M53.2085 9.57456C53.4775 9.41345 53.7808 9.27839 54.122 9.16704C54.4621 9.05568 54.8626 9 55.3235 9C56.0664 9 56.6517 9.17651 57.0806 9.52836C57.5095 9.8802 57.7239 10.3552 57.7239 10.9535C57.7239 11.4286 57.5806 11.8266 57.2938 12.1488C57.0071 12.4711 56.6398 12.6855 56.1955 12.7921V12.8264C56.4408 12.8655 56.673 12.9319 56.891 13.0278C57.1102 13.1238 57.3021 13.2517 57.4656 13.4129C57.6303 13.574 57.7607 13.7611 57.8566 13.9768C57.9514 14.1912 58 14.4281 58 14.6899C58 15.1188 57.9135 15.4789 57.7405 15.7703C57.5675 16.0618 57.3424 16.2987 57.0628 16.4835C56.7844 16.6671 56.4716 16.7998 56.1268 16.8792C55.782 16.9585 55.4372 17 55.0924 17C54.7239 17 54.3602 16.9609 54 16.8851C53.6398 16.8093 53.3069 16.6825 53 16.506L53.3104 15.5523C53.5095 15.6519 53.7666 15.7478 54.0806 15.8402C54.3945 15.9326 54.7121 15.9776 55.0344 15.9776C55.5628 15.9776 55.9716 15.8592 56.2583 15.6222C56.545 15.3841 56.6896 15.0666 56.6896 14.6686C56.6896 14.3997 56.6315 14.1805 56.5166 14.0076C56.4005 13.8346 56.2512 13.6995 56.0675 13.5988C55.8839 13.4993 55.6789 13.4306 55.4526 13.3927C55.2263 13.3548 55.0024 13.3347 54.7808 13.3347H54.263V12.3905H54.7808C55.0178 12.3905 55.2382 12.3609 55.4419 12.2981C55.6445 12.2377 55.8211 12.1512 55.9704 12.0398C56.1197 11.9285 56.237 11.7958 56.3211 11.643C56.404 11.4902 56.4467 11.3172 56.4467 11.1253C56.4467 10.7805 56.3235 10.5104 56.0782 10.315C55.8329 10.1195 55.5036 10.0212 55.09 10.0212C54.8069 10.0212 54.5225 10.0674 54.2393 10.1586C53.9562 10.251 53.7026 10.3505 53.4799 10.4571L53.2085 9.57456Z" fill="white"/>
<path fill-rule="evenodd" clip-rule="evenodd" d="M63.9468 16.2068L64.0264 16.8694V16.8707H65C64.9535 16.5473 64.9297 16.0897 64.9297 15.4979V13.3795C64.9297 11.7932 64.292 11 63.0176 11C62.3509 11 61.7938 11.166 61.3463 11.4966L61.5664 12.3362C61.9323 12.0531 62.3561 11.9103 62.8367 11.9103C63.5106 11.9103 63.8475 12.2886 63.8475 13.0464V13.1525C62.938 13.1525 62.2372 13.3319 61.7421 13.6907C61.247 14.0494 61 14.5888 61 15.3063C61 15.5503 61.0362 15.7761 61.1096 15.9811C61.184 16.1873 61.2863 16.3643 61.4207 16.5143C61.554 16.6644 61.7111 16.7828 61.892 16.8694C62.0729 16.9561 62.2724 17 62.4935 17C63.1158 17 63.5902 16.7352 63.9168 16.2068H63.9468ZM62.5256 14.2775C62.8212 14.0957 63.2718 14.0054 63.8765 14.0054V14.8925C63.8765 15.0584 63.8476 15.2134 63.7876 15.3599C63.7266 15.5063 63.6491 15.6307 63.552 15.7332C63.4558 15.8358 63.3452 15.9175 63.2191 15.9761C63.092 16.0359 62.9597 16.0652 62.8202 16.0652C62.6072 16.0652 62.4305 15.9907 62.291 15.8406C62.1514 15.6906 62.0822 15.466 62.0822 15.1658C62.0822 14.7558 62.23 14.4593 62.5256 14.2775Z" fill="white"/>
<path d="M72 11V12.0984H69.3928V17H68V11H72Z" fill="white"/>
<path fill-rule="evenodd" clip-rule="evenodd" d="M78.7952 15.0695C78.9313 14.7012 79 14.2936 79 13.8481C79 13.4251 78.9339 13.0389 78.8018 12.6884C78.6696 12.3379 78.4885 12.0385 78.2573 11.7889C78.026 11.5394 77.7551 11.3458 77.4432 11.2068C77.1313 11.0689 76.7903 11 76.4242 11C75.4833 11 74.7828 11.3351 74.3216 12.0028H74.2952L74.2172 11.1153H73C73.0159 11.4384 73.0291 11.7521 73.037 12.0551C73.0463 12.3593 73.0502 12.6611 73.0502 12.9605V19H74.4352V16.0497H74.4617C74.8211 16.5797 75.4106 16.8446 76.2313 16.8446C76.6423 16.8446 77.015 16.771 77.3533 16.6248C77.6903 16.4799 77.9811 16.2755 78.2242 16.0141C78.4687 15.7539 78.6577 15.439 78.7952 15.0695ZM77.4815 13.1279C77.5542 13.3619 77.5912 13.6174 77.5912 13.8943C77.5912 14.4931 77.4432 14.9731 77.1524 15.3307C76.8617 15.6884 76.4559 15.8666 75.9339 15.8666C75.7119 15.8666 75.5097 15.831 75.326 15.7573C75.1423 15.6848 74.9837 15.5826 74.8515 15.4519C74.7194 15.3213 74.6176 15.168 74.5449 14.9909C74.4709 14.8139 74.4352 14.6214 74.4352 14.4147V13.4808C74.4352 13.2728 74.4789 13.0768 74.5648 12.8926C74.6507 12.7084 74.763 12.5504 74.9044 12.4197C75.0445 12.289 75.2084 12.1844 75.3974 12.1084C75.5863 12.0324 75.7793 11.9932 75.9749 11.9932C76.2233 11.9932 76.448 12.0407 76.6489 12.1369C76.8498 12.2332 77.0216 12.3639 77.1617 12.529C77.3018 12.6942 77.4088 12.8938 77.4815 13.1279Z" fill="white"/>
<path d="M85 11L83.4157 14.8189C83.0389 15.7255 82.6714 16.4673 82.3158 17.0456C81.9589 17.6238 81.6192 18.0444 81.2928 18.3096C80.8125 18.6869 80.3016 18.9182 79.7603 19L79.4259 17.9696C79.7855 17.8867 80.1291 17.7243 80.4556 17.4825C80.7806 17.2407 81.042 16.9393 81.241 16.5759C81.31 16.4556 81.3432 16.3727 81.3432 16.3271C81.3432 16.2815 81.3167 16.1951 81.2663 16.0666L79 11.0012H80.5312L81.7161 14.0724C81.7771 14.2161 81.8368 14.3785 81.8965 14.5596C81.9575 14.7407 82.0212 14.9416 82.0902 15.16H82.1168C82.1592 15.0386 82.207 14.8867 82.2574 14.7009C82.3092 14.5164 82.3782 14.3026 82.4631 14.0607L83.5192 11.0012H85V11Z" fill="white"/>
<path d="M87.8935 13.5083H88.4052C88.7806 13.5083 89.0724 13.4303 89.2765 13.2717C89.4806 13.1131 89.5842 12.9203 89.5842 12.6909C89.5842 12.4542 89.4975 12.2651 89.322 12.1236C89.1486 11.9821 88.9064 11.9101 88.5987 11.9101C88.3999 11.9101 88.2001 11.9479 88.0003 12.0224C87.7983 12.098 87.6122 12.1907 87.4409 12.3005L87.1544 11.4734C87.4409 11.2928 87.7264 11.1684 88.0119 11.1013C88.2953 11.0342 88.5797 11 88.8673 11C89.0946 11 89.322 11.0256 89.5504 11.0769C89.7777 11.1281 89.9818 11.2147 90.1594 11.3367C90.337 11.4587 90.484 11.6185 90.595 11.8162C90.7082 12.0138 90.7642 12.2578 90.7642 12.5506C90.7642 12.7324 90.7335 12.8922 90.6712 13.0301C90.6109 13.168 90.5284 13.29 90.4259 13.3961C90.3243 13.5022 90.2091 13.5901 90.0833 13.656C89.9574 13.7231 89.8274 13.7731 89.6994 13.8048V13.8402C89.8623 13.8646 90.0219 13.9122 90.1763 13.9829C90.3296 14.0537 90.4671 14.1464 90.5919 14.2611C90.7135 14.3758 90.8128 14.5136 90.889 14.6747C90.963 14.8369 91 15.0199 91 15.2249C91 15.5641 90.9302 15.8483 90.7854 16.0765C90.6426 16.3058 90.4586 16.4864 90.2355 16.6206C90.0145 16.7548 89.7692 16.8512 89.5028 16.9109C89.2363 16.9695 88.9762 17 88.7246 17C88.4169 17 88.1113 16.9622 87.8121 16.8878C87.5107 16.8121 87.24 16.6962 87 16.5388L87.2887 15.6983C87.4663 15.8093 87.6683 15.902 87.8977 15.9764C88.1271 16.0508 88.3608 16.0887 88.5998 16.0887C88.9752 16.0887 89.2649 16.0045 89.4668 15.8349C89.6667 15.6653 89.7682 15.4542 89.7682 15.2017C89.7682 15.0358 89.7354 14.8967 89.6667 14.782C89.5979 14.6673 89.5017 14.5746 89.3801 14.5039C89.2564 14.4331 89.1137 14.3831 88.9487 14.3562C88.7859 14.3282 88.6061 14.3148 88.4158 14.3148H87.8935V13.5083Z" fill="white"/>
<path d="M95.1896 11.0025V13.1251C95.1896 13.6112 95.1824 14.0477 95.1658 14.4333C95.1491 14.8201 95.1312 15.2274 95.1074 15.6549L95.1312 15.6791C95.2777 15.3661 95.4218 15.0607 95.5635 14.7591C95.7075 14.4587 95.8516 14.1521 95.9981 13.839L97.3841 11H99V16.9987H97.8211V14.8761C97.8211 14.432 97.8331 13.9879 97.8509 13.5438C97.87 13.0984 97.8902 12.6505 97.914 12.1975H97.8557C97.7259 12.5678 97.5949 12.8884 97.4627 13.1608C97.3329 13.4318 97.202 13.7118 97.0722 14.0006C96.8328 14.4944 96.5959 14.9881 96.3601 15.4819C96.1255 15.9756 95.8766 16.4821 95.6159 17H94V11.0025H95.1896Z" fill="white"/>
<path d="M105 11V12.0984H103.156V17H101.832V12.0984H100V11H105Z" fill="white"/>
<path fill-rule="evenodd" clip-rule="evenodd" d="M111.988 14.0526C111.995 13.9536 112 13.8484 112 13.7384C112 13.3276 111.946 12.9536 111.837 12.6186C111.729 12.2836 111.573 11.9939 111.368 11.7531C111.165 11.511 110.918 11.3252 110.629 11.1956C110.337 11.0648 110.016 11 109.661 11C109.26 11 108.894 11.0795 108.566 11.2372C108.24 11.3961 107.959 11.6125 107.727 11.89C107.496 12.1663 107.316 12.4927 107.189 12.868C107.063 13.2433 107 13.6528 107 14.0954C107 14.5379 107.063 14.9364 107.189 15.2922C107.316 15.6479 107.501 15.9523 107.739 16.2054C107.979 16.4584 108.272 16.654 108.619 16.7922C108.967 16.9303 109.36 17 109.798 17C110.525 17 111.153 16.8814 111.686 16.6443L111.49 15.7543C111.027 15.9364 110.521 16.0269 109.974 16.0269C109.45 16.0269 109.026 15.8777 108.706 15.5819C108.387 15.2861 108.22 14.8643 108.203 14.3191H111.953C111.969 14.2408 111.981 14.1516 111.988 14.0526ZM110.489 12.3104C110.702 12.5904 110.807 12.9559 110.807 13.407H108.204C108.243 12.9633 108.39 12.6002 108.644 12.3153C108.899 12.0305 109.205 11.8887 109.569 11.8887C109.97 11.8887 110.277 12.0305 110.489 12.3104Z" fill="white"/>
<path fill-rule="evenodd" clip-rule="evenodd" d="M117 11.1326C117.238 11.093 117.538 11.0607 117.906 11.0359C118.274 11.0112 118.649 11 119.034 11C119.278 11 119.555 11.0149 119.861 11.0421C120.167 11.0694 120.461 11.1339 120.736 11.2343C121.016 11.3347 121.247 11.4846 121.435 11.6854C121.623 11.8862 121.719 12.1576 121.719 12.5022C121.719 12.6794 121.685 12.838 121.621 12.9769C121.554 13.1169 121.468 13.2396 121.357 13.3437C121.246 13.4478 121.119 13.5346 120.976 13.6015C120.834 13.6697 120.686 13.7205 120.529 13.7515L120.542 13.7874C120.974 13.8593 121.327 14.0118 121.596 14.2448C121.865 14.4778 122 14.7976 122 15.2066C122 15.6156 121.884 15.9403 121.658 16.1808C121.428 16.4212 121.147 16.6021 120.811 16.7224C120.475 16.8426 120.122 16.9194 119.75 16.9517C119.379 16.9826 119.046 17 118.753 17C118.424 17 118.103 16.9926 117.79 16.9752C117.474 16.9591 117.212 16.943 117 16.9269V11.1326ZM118.274 13.4653H118.947C119.152 13.4653 119.346 13.4517 119.53 13.4232C119.714 13.3959 119.875 13.3513 120.014 13.2918C120.154 13.231 120.26 13.1517 120.34 13.0513C120.417 12.9509 120.456 12.8295 120.456 12.6844C120.456 12.4205 120.345 12.2259 120.117 12.1019C119.892 11.978 119.54 11.916 119.058 11.916C118.921 11.916 118.799 11.9197 118.696 11.9284C118.595 11.9359 118.454 11.9482 118.274 11.9644V13.4653ZM118.683 16.0854C118.574 16.0768 118.437 16.0656 118.274 16.0495V14.3057H118.972C119.489 14.3057 119.896 14.3689 120.199 14.4965C120.5 14.6242 120.653 14.8547 120.653 15.1894C120.653 15.3802 120.604 15.5339 120.51 15.6492C120.417 15.7657 120.293 15.8574 120.137 15.9243C119.982 15.9925 119.809 16.0384 119.622 16.0619C119.434 16.0867 119.252 16.0979 119.071 16.0979C118.922 16.0979 118.794 16.0941 118.683 16.0854Z" fill="white"/>
</svg>
