<?xml version="1.0" encoding="utf-8"?><svg xmlns="http://www.w3.org/2000/svg" xmlns:xlink="http://www.w3.org/1999/xlink"><symbol viewBox="0 0 14 9" id="arrow-bottom" xmlns="http://www.w3.org/2000/svg"><path d="M7 8.429a.828.828 0 0 1-.594-.252l-5.16-5.28a.874.874 0 0 1 0-1.216.827.827 0 0 1 1.189 0L7 6.353l4.565-4.672a.827.827 0 0 1 1.189 0 .874.874 0 0 1 0 1.216l-5.16 5.28A.828.828 0 0 1 7 8.43Z"/></symbol><symbol viewBox="0 0 20 30" id="change-city-icon" xmlns="http://www.w3.org/2000/svg"><path d="M19.527 7.226c-.103-.388-.313-.8-.468-1.162C17.201 1.6 13.142 0 9.865 0 5.477 0 .645 2.942 0 9.006v1.24c0 .05.018.515.043.747.362 2.89 2.642 5.962 4.345 8.852 1.833 3.096 3.734 6.142 5.618 9.187 1.161-1.987 2.319-4 3.454-5.935.309-.568.668-1.136.978-1.678.206-.361.6-.722.78-1.058C17.052 17.006 20 13.626 20 10.297V8.929c0-.36-.447-1.625-.473-1.703Zm-9.582 6.22c-1.29 0-2.701-.646-3.398-2.427-.104-.283-.095-.851-.095-.903v-.8c0-2.27 1.927-3.303 3.604-3.303 2.065 0 3.662 1.652 3.662 3.716 0 2.065-1.708 3.716-3.773 3.716Z"/></symbol><symbol viewBox="0 0 40 40" id="facebook" xmlns="http://www.w3.org/2000/svg"><path fill-rule="evenodd" clip-rule="evenodd" d="M0 19.975C0 8.944 8.944 0 19.975 0S39.95 8.941 39.95 19.975c0 11.031-8.944 19.975-19.975 19.975S0 31.006 0 19.975Zm21.865 0 3.274-.003.436-4.13H21.86l.005-2.067c0-1.076.075-1.653 1.62-1.653h2.068V7.99h-3.306c-3.967 0-4.881 2.05-4.881 5.42l.005 2.433-2.996.002v4.13h2.996V31.96h4.492l.002-11.985Z"/></symbol><symbol viewBox="0 0 130 130" id="icon-newpets" xmlns="http://www.w3.org/2000/svg"><path d="M83.5 53.448c.361-.121.82-.714.843-1.09.53-9.064-6.955-21.147-9.65-25.181-2.17.865-4.282 2.263-6.231 4.393 0 0-3.893 2.612-5.274 15.305 7.28 9.43 16.328 7.888 20.312 6.573Z"/><path d="m112.375 37.36-11.928-2.912s-.34-2.878-3.722-4.06c-2.465-.864-10.96-5.746-19.318-4.022 3.16 4.81 10.19 16.666 9.634 26.148-.083 1.491-1.268 3.032-2.693 3.503a22.049 22.049 0 0 1-6.816 1.087c-4.33 0-9.766-1.332-14.665-6.45a98.361 98.361 0 0 0-.16 5.29C62.652 65.76 50.18 75.07 50.18 75.07l-1.661 3.443A45.063 45.063 0 0 0 63.823 96.68c.299-4.69 1.475-8.363 2.836-11.123 2.58-5.243 6.197-8.153 8.043-9.385.397-10.821 3.91-13.984 6.84-14.707a3.08 3.08 0 0 1 2.595.53c.85.633 1.396 1.68 1.451 2.803.151 2.91 1.87 4.951 2.685 5.762 1.322.123 2.584.333 3.772.62l.11-1.02.907-8.816c.154-1.488 1.492-2.743 2.972-2.955 5.622-.819 18.147-4.149 18.961-17.68.094-1.493-1.167-2.994-2.62-3.35Zm-18.583 3.143a1.523 1.523 0 1 1-.003-3.047 1.523 1.523 0 0 1 .003 3.047Z"/><path d="M100.451 80.793c-.451-3.837-5.866-6.998-12.864-7.447 0 0-3.716-2.856-3.965-7.787-.04-.746-.599-1.488-1.323-1.31-1.87.46-5.045 2.861-5.203 13.825 0 0-10.17 5.13-10.905 19.922a44.462 44.462 0 0 0 22.224 6.348l-.09-2.119c-.034-.747.507-1.565 1.206-1.827l8.662-3.248s4.063.227 5.753-2.823c.855-1.537 1.649-2.611 2.234-3.303.478-.57.471-1.384-.065-1.904-1.769-1.709-5.327-5.46-5.664-8.328Zm-5.139 3.713a1.52 1.52 0 0 1-1.522-1.522 1.523 1.523 0 1 1 1.522 1.522ZM15 43.287a4.645 4.645 0 0 0 4.645 4.645h7.122v6.812a5.032 5.032 0 1 0 10.064 0v-6.812h7.122a4.645 4.645 0 0 0 0-9.29H36.83V31.83a5.032 5.032 0 0 0-10.064 0v6.812h-7.122A4.645 4.645 0 0 0 15 43.287Z"/></symbol><symbol viewBox="0 0 40 40" id="instagram" xmlns="http://www.w3.org/2000/svg"><path fill-rule="evenodd" clip-rule="evenodd" d="M20 0C8.956 0 0 8.956 0 20s8.956 20 20 20 20-8.956 20-20S31.044 0 20 0Zm11.415 24.735c-.055 1.222-.25 2.057-.534 2.788a5.872 5.872 0 0 1-3.358 3.358c-.73.284-1.566.478-2.788.534-1.225.056-1.616.07-4.735.07s-3.51-.014-4.735-.07c-1.222-.056-2.057-.25-2.787-.534a5.626 5.626 0 0 1-2.035-1.324 5.628 5.628 0 0 1-1.324-2.034c-.284-.73-.478-1.566-.534-2.788-.056-1.225-.07-1.616-.07-4.735s.014-3.51.07-4.735c.055-1.222.25-2.057.533-2.788a5.647 5.647 0 0 1 1.325-2.034 5.625 5.625 0 0 1 2.034-1.324c.731-.284 1.566-.478 2.788-.534 1.225-.056 1.616-.07 4.735-.07s3.51.014 4.735.07c1.222.056 2.057.25 2.788.533a5.63 5.63 0 0 1 2.034 1.325 5.626 5.626 0 0 1 1.324 2.034c.285.731.479 1.566.534 2.788.056 1.225.07 1.616.07 4.735s-.014 3.51-.07 4.735Zm-2.52-11.44a3.575 3.575 0 0 0-.863-1.327 3.573 3.573 0 0 0-1.326-.863c-.407-.158-1.018-.346-2.142-.397-1.217-.056-1.582-.068-4.662-.068-3.081 0-3.446.012-4.662.067-1.125.052-1.736.24-2.142.398a3.57 3.57 0 0 0-1.327.863 3.577 3.577 0 0 0-.863 1.326c-.158.407-.346 1.018-.397 2.143-.056 1.216-.068 1.58-.068 4.662 0 3.08.012 3.445.068 4.662.051 1.125.239 1.735.397 2.142.185.5.48.954.863 1.326.372.383.825.678 1.326.863.407.158 1.018.346 2.143.398 1.216.055 1.58.067 4.661.067 3.081 0 3.446-.012 4.662-.067 1.125-.052 1.736-.24 2.143-.398a3.82 3.82 0 0 0 2.19-2.19c.157-.406.345-1.017.396-2.141.056-1.217.068-1.582.068-4.662 0-3.081-.012-3.446-.067-4.662-.052-1.125-.24-1.736-.398-2.143Zm-8.993 12.728a5.924 5.924 0 1 1-.001-11.849 5.924 5.924 0 0 1 0 11.849Zm4.773-12.083a1.385 1.385 0 1 0 2.77 0 1.385 1.385 0 0 0-2.77 0ZM23.843 20a3.842 3.842 0 1 1-7.684 0 3.842 3.842 0 0 1 7.684 0Z"/></symbol><symbol viewBox="0 0 20 24" id="link-back-arrow" xmlns="http://www.w3.org/2000/svg"><path d="M6.571 12c0 .215.084.43.252.594l5.28 5.16a.874.874 0 0 0 1.216 0 .827.827 0 0 0 0-1.189L8.648 12l4.672-4.565a.827.827 0 0 0 0-1.189.874.874 0 0 0-1.216 0l-5.28 5.16A.828.828 0 0 0 6.57 12Z"/></symbol><symbol viewBox="0 0 90 90" id="logo-footer" xmlns="http://www.w3.org/2000/svg"><path fill-rule="evenodd" clip-rule="evenodd" d="M45 0C20.147 0 0 20.147 0 45s20.147 45 45 45 45-20.147 45-45S69.853 0 45 0ZM13.792 55.034c.622-.176.248-1.042-.711-.511-.664.367-1.16.996-1.07 1.764.296 2.56 2.452 2.563 4.317 2.566.14 0 .28 0 .416.002a6.493 6.493 0 0 0-.08.838c-.028.524-.06 1.106-.235 1.54-.314.781-.854 1.177-1.095 1.353a2.89 2.89 0 0 0-.077.057c-.138.11-.46 1.114-.636 1.663-.049.154-.087.272-.106.326-.089.244.15 1.346.279 1.527.13.182.722.252.804.175.068-.064.074-.075.031-.161l-.031-.063a1.703 1.703 0 0 1-.19-.585c-.042-.28.203-1.214.278-1.417.044-.119.488-.272.967-.437.335-.116.687-.238.934-.358.32-.157.63-.361.85-.507.19-.127.315-.21.321-.177.014.07-.04 1.2-.081 1.451-.041.251.408.67.844 1.047.2.173.312.355.405.508.11.18.195.32.372.357.327.07.804 0 .994-.042a.332.332 0 0 1 .186.02c.081.027.143.047.21-.09.108-.223-.082-.404-.246-.516a2.311 2.311 0 0 0-.222-.123c-.186-.096-.416-.215-.554-.365a11.844 11.844 0 0 0-.08-.086c-.204-.22-.472-.507-.424-.654.02-.06.099-.165.197-.296.176-.233.414-.548.484-.834.109-.447.163-.754.163-.754s.75.056 1.405.224c.654.167 1.907.153 1.907.153s-.19.335-.327.586l-.035.065c-.15.27-.416.754-.278 1.023.15.294.803 1.48 1.158 1.619.26.103.484.077.665.056.065-.007.125-.014.18-.014.204 0 .326-.056.217-.251a.483.483 0 0 0-.305-.245l-.063-.02a1.844 1.844 0 0 0-.06-.02c-.105-.03-.214-.063-.294-.204-.095-.167-.177-.6-.177-.865 0-.182.33-.537.633-.863.137-.148.268-.29.362-.407.3-.376.395-.6.395-.6s.095.81.204 1.103c.11.293.817.879 1.267 1.2.276.197.408.42.5.576.059.098.101.17.154.191.136.056.572.147.75.09.176-.055.32-.166.156-.348a1.78 1.78 0 0 0-.362-.285 2.035 2.035 0 0 1-.163-.113c-.129-.104-.98-1.332-1.062-1.862-.082-.53-.11-.851-.04-1.172.067-.321.122-.405.122-.405l.042-.042c.122-.12.47-.46.632-.586.198-.154 1.247-.321 1.471-.188.046.026.084.053.119.077.135.093.212.145.44.034.236-.115.443-.34.547-.454l.052-.055a.263.263 0 0 1 .067-.053.253.253 0 0 0 .05-.034c.057-.05.067-.06.054-.119a1.804 1.804 0 0 0-.096-.189c-.113-.21-.289-.537-.316-.697-.013-.07-.016-.118-.02-.157-.006-.09-.009-.126-.107-.265-.083-.118-.314-.318-.485-.466-.116-.1-.205-.176-.2-.186l.003-.004c.022-.039.151-.268.151-.349 0-.083-.528.056-.528.056s.089-.118.068-.286c-.02-.167-.06-.261-.088-.265-.027-.003-.399.258-.511.39-.113.133-.16.186-.177.19a.848.848 0 0 0-.032.01c-.173.063-.994.362-1.515.355-.46-.005-1.142-.112-1.69-.197a24.366 24.366 0 0 0-.394-.06c-.153-.023-.418-.08-.75-.153-.912-.198-2.33-.507-3.318-.496-1.349.014-2.658.067-2.792.126-.672.17-3.381.525-4.368.265-1.375-.362-1.807-2.242-.432-2.632Zm53.455 5.843L49.965 19h-8.88L26.163 55.369l.194-.133.113-.078c.118-.081.33-.219.58-.38.628-.41 1.495-.973 1.695-1.173.28-.28.827-1.223 1.046-1.975.22-.751.78-1.795.947-2.071l.018-.03c.163-.271.36-.6.37-.811.005-.138.105-.347.22-.589a7.71 7.71 0 0 0 .205-.454c.084-.212.146-.495.197-.727.05-.235.09-.418.131-.423.082-.01.293.45.402.722.109.271.37.858.414.946.04.081.215.126.367.165l.04.01c.077.02.22.093.378.172.168.085.35.177.485.222.26.087.323.146.438.26.05.05.093.114.139.182.057.085.119.178.208.261.16.15.554.232.88.297.173.034.386.116.592.195.184.07.36.139.5.17.293.065.259.162.2.318-.058.156-.234.44-.375.601a1.904 1.904 0 0 0-.092.118 1.26 1.26 0 0 1-.467.412c-.31.17-.565.178-.804.184a7.288 7.288 0 0 0-.107.004 3.555 3.555 0 0 0-.335.04c-.197.031-.41.064-.607.044a1.892 1.892 0 0 0-.483.011 2.993 2.993 0 0 1-.178.018c-.164.012-.192.052-.228.105a.394.394 0 0 1-.047.059c-.08.082-.253.517-.291 1.158-.012.205-.033.447-.053.694-.044.526-.09 1.073-.065 1.332.023.249.136.592.27.996.07.214.146.445.217.687.156.532.13.977.11 1.323a4.242 4.242 0 0 0-.012.302c.003.344-.168.803-.302 1.161l-.03.083-.203.525c-.43 1.107-1.41 3.637-1.905 5.064l8.826-.002v-1.43c-3.545-.132-5.317-1.285-5.317-3.456 0-.753.155-1.529.465-2.327l2.393-6.115h15.587l3.191 7.678c.177.42.266.875.266 1.362 0 1.773-2.016 2.726-6.049 2.858v1.43H72v-1.43h-.266c-2.15 0-3.645-1.019-4.487-3.057Zm-28.915-11.5 6.514-16.817 6.947 16.817h-13.46Z"/></symbol><symbol viewBox="0 0 127 110" id="services-img--cardiology" xmlns="http://www.w3.org/2000/svg"><path d="M92.735 0C82.294 0 73.22 4.97 66.493 14.372a48.075 48.075 0 0 0-3.354 5.438 48.104 48.104 0 0 0-3.355-5.438C53.058 4.97 43.984 0 33.542 0 14.206 0 0 16.094 0 35.827c0 21.994 17.87 37.045 44.92 59.829 5.038 4.243 10.248 8.632 15.796 13.44a3.69 3.69 0 0 0 2.423.904 3.69 3.69 0 0 0 2.423-.904c5.548-4.808 10.758-9.197 15.796-13.44 27.05-22.784 44.92-37.835 44.92-59.829C126.278 16.1 112.078 0 92.735 0ZM76.592 89.997c-4.32 3.638-8.766 7.383-13.453 11.416-4.687-4.033-9.133-7.778-13.453-11.416-14.54-12.247-26.259-22.12-33.641-31.79h17.497a3.7 3.7 0 0 0 3.31-2.046l4.09-8.18L52.43 70.959a3.7 3.7 0 0 0 6.618 0l4.09-8.18 4.09 8.18a3.699 3.699 0 0 0 6.618 0l11.49-22.978 4.09 8.18c.626 1.253 1.907 2.02 3.308 2.02h17.498c-7.382 9.672-19.102 19.57-33.641 31.816Zm18.43-39.19-6.377-12.753a3.7 3.7 0 0 0-6.618 0L70.538 61.032l-4.09-8.18a3.7 3.7 0 0 0-6.618 0l-4.09 8.18-11.49-22.978a3.7 3.7 0 0 0-6.617 0l-6.377 12.753h-19.99C8.751 45.99 7.4 41.084 7.4 35.827 7.4 19.62 18.64 7.4 33.542 7.4c8.003 0 14.766 3.738 20.103 11.109 4.201 5.803 5.91 11.763 5.93 11.836a3.7 3.7 0 0 0 7.13-.007c.063-.23 6.576-22.938 26.03-22.938 14.904 0 26.144 12.221 26.144 28.428 0 5.257-1.352 10.162-3.868 14.98h-19.99Z"/></symbol><symbol viewBox="0 0 126 110" id="services-img--dentistry" xmlns="http://www.w3.org/2000/svg"><path d="M99.489 29.333a3.667 3.667 0 1 0 0-7.334 3.667 3.667 0 0 0 0 7.334ZM92.156 44a3.667 3.667 0 1 0 0-7.333 3.667 3.667 0 0 0 0 7.333Zm14.666 0a3.667 3.667 0 1 0 0-7.334 3.667 3.667 0 0 0 0 7.334Z"/><path d="M92.155 7.333h-5.748C83.804 2.948 79.023 0 73.564 0H51.591c-5.459 0-10.24 2.948-12.842 7.333H33c-18.196 0-33 14.804-33 33v29.334c0 2.937 1.144 5.7 3.223 7.777a10.947 10.947 0 0 0 4.512 2.73 58.507 58.507 0 0 0 11.332 28.359c1.804 2.407 5.582 1.732 6.445-1.146l6.846-22.823A10.968 10.968 0 0 0 40.334 88c2.846 0 5.442-1.086 7.397-2.866A11.293 11.293 0 0 0 55.244 88c2.846 0 5.442-1.086 7.398-2.866A11.293 11.293 0 0 0 70.156 88c2.815 0 5.385-1.064 7.333-2.81A10.954 10.954 0 0 0 84.822 88c3.136 0 5.97-1.32 7.976-3.432l6.845 22.819c.865 2.882 4.643 3.55 6.446 1.146a58.518 58.518 0 0 0 11.332-28.359 10.947 10.947 0 0 0 4.512-2.73 10.926 10.926 0 0 0 3.222-7.777V40.333c0-18.196-14.803-33-33-33Zm-40.564 0h21.973c4.186 0 7.591 3.406 7.591 7.591 0 1.504-.44 2.96-1.275 4.212l-9.433 14.15c-1.37 2.054-3.945 3.38-6.561 3.38h-2.617c-2.56 0-5.17-1.295-6.56-3.38l-9.434-14.15A7.57 7.57 0 0 1 44 14.925c0-4.186 3.406-7.592 7.591-7.592Zm-44.258 33c0-14.152 11.514-25.666 25.667-25.666h3.673c-.001.086-.006.171-.006.258 0 2.956.866 5.819 2.506 8.278l9.434 14.151a14.437 14.437 0 0 0 2.964 3.228c-.14 5.853-5.228 10.751-11.238 10.751h-11.63c-7.799 0-15.217 2.46-21.37 7.012V40.333Zm13.448 57.304a51.159 51.159 0 0 1-5.692-17.755 10.972 10.972 0 0 0 3.688-2.438 14.142 14.142 0 0 1 9.29-4.095l-7.286 24.288ZM44 77a3.67 3.67 0 0 1-3.667 3.667A3.67 3.67 0 0 1 36.667 77v-3.667h3.666c1.232 0 2.456-.07 3.667-.205V77Zm14.911 0a3.67 3.67 0 0 1-3.667 3.667c-2.083 0-3.91-1.714-3.91-3.667v-5.553a33.242 33.242 0 0 0 7.577-3.822V77Zm14.911 0a3.67 3.67 0 0 1-3.666 3.667c-2.084 0-3.912-1.714-3.912-3.667v-9.375a33.25 33.25 0 0 0 7.578 3.822V77Zm14.667 0a3.67 3.67 0 0 1-3.667 3.667A3.67 3.67 0 0 1 81.155 77v-3.872c1.212.135 2.436.205 3.667.205h3.667V77Zm15.885 20.637-7.286-24.288a14.145 14.145 0 0 1 9.29 4.095 10.972 10.972 0 0 0 3.689 2.438 51.154 51.154 0 0 1-5.693 17.755Zm12.373-25.378a3.667 3.667 0 0 1-5.184 0 21.517 21.517 0 0 0-15.11-6.26h-11.63c-7.451 0-14.552-3.237-19.484-8.882a3.667 3.667 0 0 0-5.523 0C54.885 62.762 47.783 66 40.333 66H28.704a21.519 21.519 0 0 0-15.112 6.259 3.668 3.668 0 0 1-5.184 0 3.67 3.67 0 0 1 0-5.186c5.419-5.42 12.626-8.406 20.295-8.406h11.63c4.891 0 9.526-1.898 13.052-5.345 2.717-2.656 4.5-5.969 5.195-9.562.883.157 1.782.24 2.69.24h2.616c.987 0 1.965-.097 2.921-.283 1.593 8.498 9.063 14.95 18.015 14.95h11.63c7.669 0 14.877 2.985 20.295 8.407a3.669 3.669 0 0 1 0 5.185Zm1.075-13.914c-6.153-4.552-13.571-7.012-21.37-7.012h-11.63c-6.047 0-10.97-4.906-10.999-10.947a14.397 14.397 0 0 0 2.725-3.032l9.434-14.15a14.879 14.879 0 0 0 2.507-8.28c0-.086-.005-.171-.007-.258h3.673c14.153 0 25.667 11.514 25.667 25.667v18.012Z"/><path d="M25.667 29.333a3.667 3.667 0 1 0 0-7.333 3.667 3.667 0 0 0 0 7.333ZM18.334 44a3.667 3.667 0 1 0 0-7.333 3.667 3.667 0 0 0 0 7.333ZM33 44a3.667 3.667 0 1 0 0-7.333A3.667 3.667 0 0 0 33 44Z"/></symbol><symbol viewBox="0 0 89 92" id="services-img--dermatology" xmlns="http://www.w3.org/2000/svg"><path d="M45.245 34.987c1.771 3.01 4.815 5.713 9.204 5.713 2.543 0 4.73-.862 6.565-2.173-1.512 3.286-2.365 6.941-2.365 10.223 0 .65.032 1.313.099 1.98a35.968 35.968 0 0 0-4.212-3.108c-3.255-2.036-6.894-3.472-10.537-3.472-3.642 0-7.281 1.436-10.536 3.472a35.283 35.283 0 0 0-3.619 2.612c.038-.5.055-.995.055-1.484 0-3.114-.834-6.517-2.23-9.613a11.746 11.746 0 0 0 5.88 1.563c4.39 0 7.434-2.702 9.205-5.713a16.92 16.92 0 0 0 1.245-2.628 16.93 16.93 0 0 0 1.246 2.628Zm21.833-4.309c1.566-3.455 2.421-7.3 2.421-10.528 0-3.254-.798-6.917-2.545-9.887-1.771-3.01-4.815-5.713-9.205-5.713-5.44 0-9.252 3.947-11.483 7.794a26.679 26.679 0 0 0-2.209 4.951c-.58-1.883-1.354-3.728-2.309-5.406C39.514 7.959 35.701 4 30.25 4c-4.389 0-7.433 2.702-9.204 5.713-1.723 2.93-2.524 6.533-2.545 9.753-.232 3.333.409 7.13 1.796 10.562-1.759-1.115-3.769-1.828-5.997-1.828-3.863 0-6.689 2.023-8.393 4.729C4.287 35.5 3.65 38.679 3.65 41.6c0 4.35 1.63 9.268 4.145 13.12 2.432 3.724 6.376 7.43 11.455 7.43.119 0 .237-.002.353-.006-2.958 4.892-4.953 10.273-4.953 15.206 0 3.667 1.346 6.599 3.917 8.468C20.936 87.541 23.86 88 26.399 88c4.028 0 7.48-1.347 10.24-2.424l.04-.015c2.952-1.153 5.072-1.961 7.32-1.961 1.928 0 3.867.77 6.716 1.938l.062.026C53.374 86.629 56.715 88 60.5 88c2.364 0 5.467-.27 8.074-1.775 2.938-1.694 4.776-4.678 4.776-8.875 0-4.945-2.004-10.34-4.973-15.24.3.027.609.04.923.04 5.312 0 9.269-3.647 11.69-7.472 2.465-3.898 3.91-8.805 3.91-13.078 0-3.067-.84-6.24-2.512-8.748-1.695-2.541-4.459-4.652-8.138-4.652-2.766 0-5.165.99-7.171 2.478Z"/></symbol><symbol viewBox="0 0 142 112" id="services-img--endocrinology" xmlns="http://www.w3.org/2000/svg"><mask id="ka" maskUnits="userSpaceOnUse" x="0" y="0" width="142" height="112"><path d="M0 0h142v112H0z"/><path fill-rule="evenodd" clip-rule="evenodd" d="M34.507 111C18.729 111 9.816 94.784 6.715 87.813-1.895 68.514-.72 48.448 9.862 34.14c1.622-2.193 3.416-3.863 4.497-4.869.405-.377.71-.66.867-.844a30 30 0 0 1 11.387-5.973c3.336-.913 7.631-1.015 8.823-.916 3.134.273 10.178 3.072 12.609 7.015.438.71.79 1.47 1.051 2.264a13.448 13.448 0 0 1-1.215 10.534c5.185-.957 11.977-3.387 11.977-9.654V6.116A5.116 5.116 0 0 1 64.974 1h11.331a5.116 5.116 0 0 1 5.116 5.116v25.582c0 6.267 6.792 8.697 11.977 9.654a13.448 13.448 0 0 1-1.215-10.534c.26-.794.613-1.554 1.052-2.264 2.43-3.942 9.475-6.742 12.609-7.015 1.191-.099 5.486.003 8.823.916a30.002 30.002 0 0 1 11.386 5.973c.157.183.462.467.867.844h.001c1.08 1.006 2.875 2.676 4.496 4.869 10.583 14.307 11.757 34.373 3.147 53.672-3.101 6.97-12.013 23.187-27.792 23.187a26.665 26.665 0 0 1-9.897-1.845c-.283-.103-1.018-.541-1.888-1.117-5.024-2.715-14.397-10.17-9.563-28.738a23.91 23.91 0 0 1 6.938-7.974 68.731 68.731 0 0 1-9.432-3.934l-.304-.154c-3.312-1.639-7.252-2.709-11.237-3.033-4.565.144-9.152 1.22-12.813 3.033l-.305.154a68.736 68.736 0 0 1-9.432 3.934 23.911 23.911 0 0 1 6.938 7.974c4.693 18.025-4.002 25.577-9.111 28.487-1.028.697-1.939 1.25-2.262 1.368A26.664 26.664 0 0 1 34.507 111Zm55.437-13.363c.18.23.366.474.56.729 1.53 2.011 3.554 4.668 7.056 6.036 3.298 1.289 6.473 1.5 9.212 1.481 12.765 0 20.424-14.09 23.118-20.15 7.851-17.598 6.884-35.747-2.586-48.55a24.344 24.344 0 0 0-21.033-10.535c-3.658.31-8.1 2.23-9.21 5.733a10.05 10.05 0 0 0 3.774 10.178 2.557 2.557 0 0 1-1.653 4.513c-.933 0-22.867-.202-22.867-15.374V6.116h-11.35v25.582c0 15.172-21.934 15.374-22.868 15.374a2.558 2.558 0 0 1-1.653-4.513 10.051 10.051 0 0 0 3.774-10.178c-1.11-3.503-5.552-5.424-9.21-5.733a24.343 24.343 0 0 0-21.033 10.534c-9.47 12.804-10.437 30.953-2.586 48.55 2.694 6.061 10.353 20.151 23.118 20.151 2.74.019 5.914-.192 9.212-1.481 3.503-1.368 5.526-4.025 7.057-6.036l.001-.002c.14-.184.275-.362.407-.533 1.689-4.43 2.382-9.93.157-16.137-2.502-4.413-6.087-7.339-10.465-9.132a2.558 2.558 0 0 1 1.038-4.889l.039-.003c.463-.038 5.118-.413 14.031-4.87l.307-.153a30.688 30.688 0 0 1 14.31-3.183 30.688 30.688 0 0 1 14.31 3.183l.306.153c8.914 4.457 13.568 4.832 14.032 4.87l.038.003a2.558 2.558 0 0 1 1.039 4.889c-4.38 1.793-7.964 4.719-10.465 9.132-2.193 6.116-1.552 11.547.083 15.943ZM72.649 52.163V41.93a2.558 2.558 0 0 0-5.117 0v10.233a2.558 2.558 0 1 0 5.117 0ZM18.08 40.223a34.558 34.558 0 0 0-5.991 13.58 2.558 2.558 0 0 0 2.504 3.082 2.558 2.558 0 0 0 2.5-2.047 29.573 29.573 0 0 1 5.098-11.588 14.99 14.99 0 0 1 11.243-6.436 2.558 2.558 0 0 0 0-5.117 19.938 19.938 0 0 0-15.354 8.527Zm107.55 38.506a34.555 34.555 0 0 1-5.991 13.578 19.938 19.938 0 0 1-15.354 8.526 2.558 2.558 0 1 1 0-5.116 14.992 14.992 0 0 0 11.243-6.436 29.573 29.573 0 0 0 5.098-11.588 2.558 2.558 0 0 1 3.026-1.993 2.558 2.558 0 0 1 1.978 3.029Z"/></mask><path fill-rule="evenodd" clip-rule="evenodd" d="M34.507 111C18.729 111 9.816 94.784 6.715 87.813-1.895 68.514-.72 48.448 9.862 34.14c1.622-2.193 3.416-3.863 4.497-4.869.405-.377.71-.66.867-.844a30 30 0 0 1 11.387-5.973c3.336-.913 7.631-1.015 8.823-.916 3.134.273 10.178 3.072 12.609 7.015.438.71.79 1.47 1.051 2.264a13.448 13.448 0 0 1-1.215 10.534c5.185-.957 11.977-3.387 11.977-9.654V6.116A5.116 5.116 0 0 1 64.974 1h11.331a5.116 5.116 0 0 1 5.116 5.116v25.582c0 6.267 6.792 8.697 11.977 9.654a13.448 13.448 0 0 1-1.215-10.534c.26-.794.613-1.554 1.052-2.264 2.43-3.942 9.475-6.742 12.609-7.015 1.191-.099 5.486.003 8.823.916a30.002 30.002 0 0 1 11.386 5.973c.157.183.462.467.867.844h.001c1.08 1.006 2.875 2.676 4.496 4.869 10.583 14.307 11.757 34.373 3.147 53.672-3.101 6.97-12.013 23.187-27.792 23.187a26.665 26.665 0 0 1-9.897-1.845c-.283-.103-1.018-.541-1.888-1.117-5.024-2.715-14.397-10.17-9.563-28.738a23.91 23.91 0 0 1 6.938-7.974 68.731 68.731 0 0 1-9.432-3.934l-.304-.154c-3.312-1.639-7.252-2.709-11.237-3.033-4.565.144-9.152 1.22-12.813 3.033l-.305.154a68.736 68.736 0 0 1-9.432 3.934 23.911 23.911 0 0 1 6.938 7.974c4.693 18.025-4.002 25.577-9.111 28.487-1.028.697-1.939 1.25-2.262 1.368A26.664 26.664 0 0 1 34.507 111Zm55.437-13.363c.18.23.366.474.56.729 1.53 2.011 3.554 4.668 7.056 6.036 3.298 1.289 6.473 1.5 9.212 1.481 12.765 0 20.424-14.09 23.118-20.15 7.851-17.598 6.884-35.747-2.586-48.55a24.344 24.344 0 0 0-21.033-10.535c-3.658.31-8.1 2.23-9.21 5.733a10.05 10.05 0 0 0 3.774 10.178 2.557 2.557 0 0 1-1.653 4.513c-.933 0-22.867-.202-22.867-15.374V6.116h-11.35v25.582c0 15.172-21.934 15.374-22.868 15.374a2.558 2.558 0 0 1-1.653-4.513 10.051 10.051 0 0 0 3.774-10.178c-1.11-3.503-5.552-5.424-9.21-5.733a24.343 24.343 0 0 0-21.033 10.534c-9.47 12.804-10.437 30.953-2.586 48.55 2.694 6.061 10.353 20.151 23.118 20.151 2.74.019 5.914-.192 9.212-1.481 3.503-1.368 5.526-4.025 7.057-6.036l.001-.002c.14-.184.275-.362.407-.533 1.689-4.43 2.382-9.93.157-16.137-2.502-4.413-6.087-7.339-10.465-9.132a2.558 2.558 0 0 1 1.038-4.889l.039-.003c.463-.038 5.118-.413 14.031-4.87l.307-.153a30.688 30.688 0 0 1 14.31-3.183 30.688 30.688 0 0 1 14.31 3.183l.306.153c8.914 4.457 13.568 4.832 14.032 4.87l.038.003a2.558 2.558 0 0 1 1.039 4.889c-4.38 1.793-7.964 4.719-10.465 9.132-2.193 6.116-1.552 11.547.083 15.943ZM72.649 52.163V41.93a2.558 2.558 0 0 0-5.117 0v10.233a2.558 2.558 0 1 0 5.117 0ZM18.08 40.223a34.558 34.558 0 0 0-5.991 13.58 2.558 2.558 0 0 0 2.504 3.082 2.558 2.558 0 0 0 2.5-2.047 29.573 29.573 0 0 1 5.098-11.588 14.99 14.99 0 0 1 11.243-6.436 2.558 2.558 0 0 0 0-5.117 19.938 19.938 0 0 0-15.354 8.527Zm107.55 38.506a34.555 34.555 0 0 1-5.991 13.578 19.938 19.938 0 0 1-15.354 8.526 2.558 2.558 0 1 1 0-5.116 14.992 14.992 0 0 0 11.243-6.436 29.573 29.573 0 0 0 5.098-11.588 2.558 2.558 0 0 1 3.026-1.993 2.558 2.558 0 0 1 1.978 3.029Z"/><path d="m6.716 87.813.913-.407-.913.407ZM34.507 111l.006-1h-.006v1ZM9.862 34.14l-.804-.594.804.595Zm4.497-4.868-.651-.76-.016.014-.015.014.682.732Zm0 0 .65.76.016-.014.015-.014-.681-.732Zm.867-.844-.643-.765-.061.051-.053.061.757.653Zm11.387-5.973.264.965-.264-.965Zm8.823-.916.086-.996h-.003l-.083.996Zm12.609 7.015-.852.524.852-.524Zm1.051 2.264.958-.287-.004-.013-.004-.012-.95.312Zm-1.215 10.534-.868-.497-1.072 1.872 2.121-.392-.181-.983Zm45.517 0-.181.983 2.121.392-1.072-1.872-.868.497Zm-1.215-10.534-.95-.312-.004.012-.004.013.958.287Zm1.052-2.264.85.524-.85-.524Zm12.609-7.015-.083-.996h-.004l.087.996Zm8.823.916.264-.964-.264.964Zm11.386 5.973.757-.653-.052-.06-.062-.052-.643.765Zm.867.844-.681.732.006.005.006.006.669-.743Zm.001 0 .694-.72-.013-.012-.013-.011-.668.743Zm0 0-.694.72.006.006.006.006.682-.732Zm4.496 4.869-.804.594.804-.594Zm3.147 53.672-.913-.408-.001.001.914.407ZM106.772 111v-1h-.005l.005 1Zm-9.897-1.845.365-.931-.011-.004-.011-.004-.343.939Zm-1.888-1.117.553-.834-.038-.024-.04-.022-.475.88ZM85.424 79.3l-.88-.474-.057.106-.03.116.968.252Zm6.938-7.974.59.807 1.565-1.145-1.84-.61-.315.948Zm-9.432-3.934.453-.892-.002-.001-.45.893Zm-.304-.154.45-.893-.006-.003-.444.896Zm-11.237-3.033.08-.997-.055-.005-.057.002.032 1Zm-12.813 3.033-.444-.896-.007.003.45.893Zm-.305.154-.45-.893-.002.001.452.892Zm-9.432 3.934-.315-.949-1.84.611 1.565 1.145.59-.807Zm6.938 7.974.968-.252-.03-.116-.057-.106-.881.474Zm-9.111 28.487-.495-.869-.034.02-.032.022.56.827Zm-2.262 1.368-.342-.939-.012.004-.011.004.365.931Zm46.1-10.79-.796.607.796-.606Zm-.56-.728-.937.349.054.145.096.123.787-.617Zm7.617 6.765-.364.932.364-.932Zm9.211 1.481v-1h-.006l.006 1Zm23.118-20.15-.913-.407h-.001l.914.407Zm-2.586-48.55-.824.566.01.014.01.014.804-.595Zm-21.033-10.535-.04-1-.022.002-.022.001.084.997Zm-9.21 5.733-.953-.303-.014.044-.01.045.978.214Zm3.774 10.178.645-.764-.021-.018-.023-.017-.601.8Zm.751 2.835.939.343-.939-.343Zm-2.404 1.678.001-1v1ZM76.315 6.116h1v-1h-1v1Zm-11.35 0v-1h-1v1h1ZM42.096 47.072v-1 1Zm-2.404-1.678-.94.343.94-.343Zm.752-2.835-.602-.798-.022.016-.022.018.645.764Zm3.773-10.178.977-.214-.01-.045-.014-.044-.953.303Zm-9.21-5.733.085-.997-.022-.002h-.023l-.04.999ZM13.975 37.182l.805.595.01-.014.01-.014-.825-.567Zm-2.586 48.55.914-.405v-.001l-.914.407Zm23.118 20.151.007-1h-.007v1Zm9.212-1.481.364.932-.364-.932Zm7.057-6.036-.795-.607.795.607Zm.001-.002.795.607v-.002l-.795-.605Zm.407-.533.792.612.09-.117.053-.139-.934-.356Zm.157-16.137.941-.337-.029-.081-.042-.075-.87.493Zm-10.465-9.132-.412.91.016.008.017.007.379-.925Zm1.038-4.889.007 1 .256-.001.224-.125-.487-.874Zm.039-.003.08.996-.08-.996Zm14.031-4.87-.447-.894.447.894Zm.307-.153-.444-.897-.003.002.447.895Zm14.31-3.183-.022 1h.044l-.022-1Zm14.31 3.183.447-.895-.004-.002-.444.897Zm.306.153.448-.894-.448.894Zm14.032 4.87-.08.996.08-.996Zm.038.003-.486.874.224.125.256.001.006-1Zm2.486 2.027-.978.207.978-.207Zm-1.447 2.862.379.925.016-.007.017-.007-.412-.911Zm-10.465 9.132-.87-.493-.043.075-.029.08.942.338ZM12.09 53.802l.978.206.002-.008-.98-.198Zm5.99-13.578.808.59.007-.01.007-.01-.821-.57ZM14.068 56.83l-.206.979h.006l.2-.98Zm.527.054-.001 1h.004l-.003-1Zm2.5-2.047.98.2v-.002l-.98-.198Zm5.098-11.588.808.59.007-.011.008-.011-.823-.568Zm11.243-6.436v-1h-.037l-.036.002.073.998Zm0-5.117v-1h-.026l-.025.002.05.998Zm86.204 60.61-.807-.591-.007.01-.007.01.821.57Zm5.991-13.58-.979-.205-.001.008.98.198Zm-21.345 22.105v1h.025l.026-.001-.051-.999Zm0-5.116v1h.036l.037-.002-.073-.998Zm11.243-6.436-.808-.59-.008.011-.007.01.823.569Zm5.098-11.588-.98-.2v.002l.98.198Zm2.499-2.047.002-1h-.004l.002 1Zm.527.054.206-.979h-.005l-.201.979ZM5.802 88.219c1.571 3.534 4.628 9.443 9.323 14.483C19.824 107.746 26.243 112 34.507 112v-2c-7.514 0-13.441-3.855-17.918-8.661-4.481-4.811-7.43-10.495-8.96-13.933l-1.827.813Zm3.256-54.673C-1.783 48.203-2.922 68.666 5.802 88.22l1.827-.815C-.868 68.362.34 48.693 10.666 34.735l-1.608-1.19Zm4.62-5.006c-1.083 1.007-2.938 2.732-4.62 5.006l1.608 1.19c1.561-2.112 3.295-3.727 4.374-4.732l-1.363-1.464Zm.03-.027 1.301 1.518-1.301-1.518Zm.761-.738c-.112.13-.362.365-.792.765l1.363 1.464c.381-.355.74-.687.944-.923l-1.515-1.306Zm11.88-6.284a31.003 31.003 0 0 0-11.766 6.172l1.287 1.53a29.001 29.001 0 0 1 11.007-5.773l-.528-1.93Zm9.17-.948c-1.288-.107-5.703-.002-9.17.948l.528 1.929c3.205-.878 7.38-.975 8.476-.884l.166-1.993Zm13.377 7.486c-1.362-2.209-3.931-3.998-6.445-5.253-2.526-1.261-5.196-2.082-6.929-2.233l-.173 1.992c1.4.122 3.82.838 6.208 2.03 2.4 1.198 4.568 2.78 5.636 4.513l1.703-1.05Zm1.15 2.477c-.285-.868-.67-1.7-1.15-2.477l-1.703 1.05c.397.643.717 1.332.953 2.05l1.9-.623ZM48.75 41.849a14.448 14.448 0 0 0 1.305-11.318l-1.916.573c.976 3.267.57 6.792-1.125 9.751l1.736.994Zm10.11-10.151c0 2.695-1.433 4.59-3.586 5.977-2.185 1.407-5.03 2.224-7.574 2.694l.363 1.966c2.642-.487 5.786-1.364 8.293-2.978 2.539-1.634 4.503-4.088 4.503-7.66h-2Zm0-25.582v25.582h2V6.116h-2ZM64.973 0a6.116 6.116 0 0 0-6.116 6.116h2A4.116 4.116 0 0 1 64.974 2V0Zm1.098 0h-1.098v2h1.098V0Zm9.135 0h-9.135v2h9.135V0Zm1.098 0h-1.098v2h1.098V0Zm6.116 6.116A6.116 6.116 0 0 0 76.305 0v2a4.116 4.116 0 0 1 4.116 4.116h2Zm0 25.582V6.116h-2v25.582h2Zm11.159 8.67c-2.544-.469-5.388-1.286-7.573-2.693-2.154-1.386-3.586-3.282-3.586-5.977h-2c0 3.571 1.964 6.025 4.503 7.659 2.507 1.614 5.651 2.49 8.293 2.978l.363-1.967Zm-2.355-9.837a14.448 14.448 0 0 0 1.306 11.318l1.735-.994a12.448 12.448 0 0 1-1.125-9.751l-1.916-.573Zm1.158-2.502a11.642 11.642 0 0 0-1.15 2.477l1.9.623a9.627 9.627 0 0 1 .953-2.05l-1.703-1.05Zm13.374-7.486c-1.733.15-4.403.972-6.928 2.233-2.515 1.255-5.084 3.044-6.446 5.253l1.703 1.05c1.069-1.734 3.237-3.316 5.636-4.514 2.388-1.192 4.807-1.908 6.208-2.03l-.173-1.992Zm9.174.948c-3.468-.95-7.883-1.055-9.17-.948l.166 1.993c1.095-.091 5.27.006 8.476.884l.528-1.93Zm11.765 6.172a30.993 30.993 0 0 0-11.765-6.172l-.528 1.929a28.995 28.995 0 0 1 11.006 5.774l1.287-1.531Zm.906.877c-.43-.4-.68-.635-.792-.765l-1.514 1.306c.203.236.562.568.943.923l1.363-1.464Zm-.013-.011-1.338 1.486h.001l1.337-1.486Zm.026.023-1.389 1.44h.001l1.388-1.44Zm4.606 4.994c-1.682-2.274-3.537-3.999-4.619-5.006l-1.363 1.464c1.079 1.005 2.813 2.62 4.374 4.731l1.608-1.19Zm3.256 54.674c8.725-19.554 7.586-40.017-3.256-54.674l-1.608 1.19c10.325 13.958 11.534 33.626 3.038 52.67l1.826.814ZM106.772 112c8.264 0 14.683-4.254 19.382-9.298 4.695-5.04 7.752-10.95 9.323-14.483l-1.827-.813c-1.529 3.438-4.478 9.122-8.959 13.933-4.478 4.806-10.404 8.661-17.919 8.661v2Zm-10.263-1.914A27.669 27.669 0 0 0 106.778 112l-.011-2a25.66 25.66 0 0 1-9.527-1.776l-.73 1.862Zm-2.074-1.214c.444.294.86.557 1.206.762.32.19.65.373.891.461l.686-1.879-.044-.02a3.535 3.535 0 0 1-.124-.062 9.982 9.982 0 0 1-.389-.22c-.31-.184-.696-.428-1.121-.71l-1.105 1.668Zm-9.978-29.824c-2.468 9.48-1.336 16.247 1.166 21.029 2.491 4.763 6.274 7.428 8.889 8.841l.95-1.76c-2.41-1.302-5.825-3.722-8.067-8.008-2.232-4.266-3.369-10.51-1.003-19.598l-1.935-.504Zm7.315-8.529a24.91 24.91 0 0 0-7.228 8.307l1.761.947a22.91 22.91 0 0 1 6.648-7.64l-1.181-1.614Zm-9.294-2.235a69.718 69.718 0 0 0 9.569 3.991l.63-1.898a67.723 67.723 0 0 1-9.294-3.877l-.905 1.784Zm-.302-.153.304.154.9-1.786-.304-.154-.9 1.786Zm-10.868-2.93c3.868.315 7.684 1.354 10.874 2.934l.888-1.793c-3.433-1.699-7.497-2.8-11.6-3.134l-.162 1.993Zm-12.289 2.934c3.517-1.741 7.961-2.79 12.401-2.93l-.063-2c-4.688.148-9.419 1.253-13.225 3.137l.887 1.793Zm-.298.15.305-.154-.9-1.786-.305.154.9 1.786Zm-9.566 3.99a69.723 69.723 0 0 0 9.569-3.991l-.905-1.784a67.734 67.734 0 0 1-9.295 3.877l.63 1.898Zm7.503 6.551a24.912 24.912 0 0 0-7.228-8.307l-1.181 1.614a22.91 22.91 0 0 1 6.647 7.64l1.762-.947Zm-9.497 29.83c2.661-1.515 6.29-4.259 8.633-9.001 2.35-4.759 3.346-11.406.95-20.607l-1.935.504c2.297 8.824 1.292 14.965-.808 19.217-2.109 4.268-5.382 6.755-7.83 8.149l.99 1.738Zm-2.414 1.439c.268-.098.658-.319 1.042-.551.414-.251.914-.573 1.438-.929l-1.122-1.655c-.504.341-.974.644-1.352.873-.19.115-.351.208-.479.277a4.304 4.304 0 0 1-.155.08c-.042.02-.06.026-.057.026l.685 1.879ZM34.501 112c3.514.02 6.999-.63 10.269-1.914l-.731-1.862A25.66 25.66 0 0 1 34.513 110l-.012 2ZM91.3 97.76a68.733 68.733 0 0 0-.568-.74l-1.574 1.234c.175.223.356.462.55.718L91.3 97.76Zm6.625 5.711c-3.212-1.255-5.086-3.69-6.625-5.711l-1.591 1.212c1.524 2.001 3.695 4.879 7.489 6.362l.727-1.863Zm8.842 1.412c-2.685.018-5.714-.19-8.842-1.412l-.727 1.863c3.467 1.354 6.787 1.568 9.582 1.549l-.013-2Zm22.21-19.556c-1.327 2.986-3.865 7.916-7.612 12.085-3.75 4.172-8.607 7.471-14.592 7.471v2c6.781 0 12.136-3.746 16.08-8.134 3.947-4.391 6.585-9.535 7.952-12.61l-1.828-.812Zm-2.476-47.55c9.207 12.448 10.217 30.199 2.477 47.549l1.826.814c7.962-17.845 7.038-36.394-2.695-49.553l-1.608 1.19Zm-20.189-10.13a23.344 23.344 0 0 1 20.169 10.102l1.648-1.133a25.343 25.343 0 0 0-21.897-10.967l.08 1.998Zm-8.296 5.036c.452-1.427 1.611-2.612 3.185-3.494 1.568-.879 3.451-1.4 5.155-1.545l-.168-1.993c-1.955.166-4.12.76-5.965 1.794-1.84 1.031-3.456 2.558-4.114 4.633l1.907.605Zm3.421 9.078a9.051 9.051 0 0 1-3.398-9.167l-1.953-.427a11.052 11.052 0 0 0 4.148 11.191l1.203-1.597Zm1.089 3.976a3.557 3.557 0 0 0-1.045-3.942l-1.29 1.528c.5.423.682 1.112.457 1.727l1.878.687Zm-3.344 2.335a3.556 3.556 0 0 0 3.344-2.335l-1.878-.687a1.558 1.558 0 0 1-1.464 1.022l-.002 2ZM75.316 31.698c0 8.227 6.005 12.322 11.755 14.32 5.761 2.004 11.613 2.054 12.112 2.054v-2c-.434 0-6.016-.051-11.455-1.942-5.45-1.895-10.412-5.488-10.412-12.432h-2Zm0-25.582v25.582h2V6.116h-2Zm-10.35 1h11.35v-2h-11.35v2Zm1 24.582V6.116h-2v25.582h2Zm-23.87 16.374c.5 0 6.351-.05 12.112-2.053 5.75-2 11.755-6.094 11.755-14.321h-2c0 6.944-4.962 10.537-10.412 12.432-5.44 1.891-11.02 1.942-11.455 1.942v2Zm-3.343-2.335a3.558 3.558 0 0 0 3.344 2.335l-.002-2c-.654 0-1.24-.408-1.464-1.022l-1.878.687Zm1.045-3.942a3.558 3.558 0 0 0-1.045 3.942l1.878-.687a1.558 1.558 0 0 1 .458-1.727l-1.29-1.528Zm3.442-9.2a9.05 9.05 0 0 1-3.398 9.166l1.203 1.597a11.051 11.051 0 0 0 4.149-11.191l-1.954.427Zm-8.317-4.95c1.704.143 3.588.665 5.155 1.544 1.574.882 2.733 2.067 3.185 3.494l1.907-.605c-.658-2.075-2.274-3.602-4.113-4.633-1.845-1.035-4.01-1.628-5.965-1.794l-.169 1.993ZM14.8 37.748a23.343 23.343 0 0 1 20.168-10.102l.08-1.998a25.343 25.343 0 0 0-21.897 10.967l1.649 1.133Zm-2.498 47.577c-7.74-17.35-6.73-35.101 2.478-47.55l-1.608-1.189C3.438 49.748 2.514 68.296 10.476 86.14l1.826-.814Zm22.205 19.557c-5.985 0-10.842-3.299-14.592-7.47-3.747-4.17-6.285-9.1-7.612-12.086l-1.828.812c1.367 3.075 4.006 8.219 7.953 12.61 3.944 4.388 9.299 8.134 16.079 8.134v-2Zm8.848-1.412c-3.127 1.222-6.157 1.43-8.841 1.412l-.014 2c2.795.019 6.115-.195 9.583-1.549l-.728-1.863Zm6.625-5.711c-1.539 2.02-3.413 4.456-6.625 5.711l.728 1.863c3.793-1.483 5.965-4.361 7.488-6.362l-1.59-1.212Zm.003-.004-.002.003 1.59 1.214v-.002l-1.588-1.215Zm.41-.536c-.135.174-.272.355-.411.538l1.59 1.211.404-.526-1.583-1.223Zm.006-15.188c2.132 5.944 1.47 11.196-.149 15.443l1.869.712c1.758-4.612 2.483-10.362.163-16.83l-1.883.675Zm-9.902-8.545c4.188 1.716 7.592 4.497 9.974 8.7l1.74-.986c-2.621-4.624-6.387-7.693-10.956-9.564l-.758 1.85Zm-2.047-3.995a3.558 3.558 0 0 0 2.014 3.98l.824-1.821a1.558 1.558 0 0 1-.881-1.743l-1.957-.416Zm3.458-2.819a3.558 3.558 0 0 0-3.458 2.819l1.957.415a1.558 1.558 0 0 1 1.514-1.234l-.013-2Zm-.035 0-.039.003-.04.004a1.047 1.047 0 0 0-.366.12l.973 1.747a1.004 1.004 0 0 1-.379.12h-.006.017l-.16-1.994Zm13.664-4.767c-8.8 4.4-13.331 4.74-13.665 4.767l.161 1.993c.593-.047 5.372-.459 14.398-4.972l-.894-1.788Zm.307-.154-.307.154.894 1.788.307-.153-.894-1.789Zm14.779-3.287a31.688 31.688 0 0 0-14.776 3.285l.888 1.793a29.688 29.688 0 0 1 13.844-3.079l.044-2Zm14.731 3.285a31.688 31.688 0 0 0-14.775-3.285l.044 2c4.734-.106 9.487.92 13.843 3.078l.888-1.793Zm.31.156-.306-.154-.895 1.789.307.153.895-1.788Zm13.665 4.767c-.334-.027-4.864-.367-13.664-4.767l-.895 1.788c9.026 4.513 13.805 4.924 14.398 4.972l.161-1.993Zm.444.126a.992.992 0 0 0-.365-.119l-.04-.004-.039-.003-.16 1.993.017.002h-.007a.917.917 0 0 1-.019-.003l-.055-.009a.986.986 0 0 1-.304-.109l.972-1.748Zm2.978 2.693a3.557 3.557 0 0 0-3.458-2.819l-.012 2a1.558 1.558 0 0 1 1.514 1.234l1.956-.415Zm-2.013 3.98a3.557 3.557 0 0 0 2.013-3.98l-1.956.415a1.559 1.559 0 0 1-.882 1.744l.825 1.822Zm-10.007 8.715c2.382-4.203 5.785-6.984 9.974-8.7l-.758-1.85c-4.57 1.871-8.336 4.94-10.956 9.564l1.74.986Zm.15 15.102c-1.567-4.214-2.18-9.4-.079-15.257l-1.883-.675c-2.285 6.374-1.615 12.05.088 16.629l1.874-.697ZM71.65 41.93v10.233h2V41.93h-2Zm-1.558-1.558c.86 0 1.558.698 1.558 1.558h2a3.558 3.558 0 0 0-3.558-3.558v2Zm-1.559 1.558c0-.86.698-1.558 1.559-1.558v-2a3.558 3.558 0 0 0-3.559 3.558h2Zm0 10.233V41.93h-2v10.233h2Zm1.559 1.558a1.559 1.559 0 0 1-1.559-1.558h-2a3.558 3.558 0 0 0 3.559 3.558v-2Zm1.558-1.558c0 .86-.698 1.558-1.558 1.558v2a3.558 3.558 0 0 0 3.558-3.558h-2ZM13.069 54a33.556 33.556 0 0 1 5.819-13.186l-1.614-1.181a35.559 35.559 0 0 0-6.165 13.971l1.96.396Zm1.204 1.852a1.558 1.558 0 0 1-1.205-1.844l-1.957-.411a3.558 3.558 0 0 0 2.75 4.213l.412-1.958Zm.322.033c-.11 0-.22-.012-.328-.034l-.4 1.96c.239.048.482.073.726.074l.002-2Zm1.518-1.247a1.558 1.558 0 0 1-1.522 1.247l.006 2a3.558 3.558 0 0 0 3.476-2.847l-1.96-.4Zm5.27-11.977a30.575 30.575 0 0 0-5.27 11.98l1.96.395A28.575 28.575 0 0 1 23 43.839l-1.616-1.178Zm11.979-6.845a15.991 15.991 0 0 0-11.993 6.866l1.646 1.136a13.99 13.99 0 0 1 10.493-6.007l-.146-1.995Zm1.63-1.56c0 .86-.697 1.558-1.557 1.558v2a3.558 3.558 0 0 0 3.558-3.559h-2Zm-1.557-1.559c.86 0 1.558.698 1.558 1.558h2a3.558 3.558 0 0 0-3.558-3.558v2Zm-14.533 8.098a18.938 18.938 0 0 1 14.584-8.099l-.102-1.997a20.938 20.938 0 0 0-16.124 8.954l1.642 1.142Zm101.544 52.102a35.567 35.567 0 0 0 6.164-13.972l-1.96-.395a33.571 33.571 0 0 1-5.818 13.186l1.614 1.18Zm-16.11 8.934a20.938 20.938 0 0 0 16.124-8.954l-1.642-1.142a18.94 18.94 0 0 1-14.584 8.099l.102 1.997Zm-3.609-3.557a3.558 3.558 0 0 0 3.558 3.558v-2a1.558 1.558 0 0 1-1.558-1.558h-2Zm3.558-3.558a3.558 3.558 0 0 0-3.558 3.558h2c0-.86.697-1.558 1.558-1.558v-2Zm10.42-6.004a13.992 13.992 0 0 1-10.493 6.007l.146 1.995a15.992 15.992 0 0 0 11.993-6.866l-1.646-1.136Zm4.941-11.218a28.58 28.58 0 0 1-4.926 11.197l1.616 1.178a30.566 30.566 0 0 0 5.27-11.98l-1.96-.395Zm3.477-2.849a3.56 3.56 0 0 0-3.477 2.847l1.96.4a1.558 1.558 0 0 1 1.522-1.247l-.005-2Zm.73.074a3.643 3.643 0 0 0-.726-.074l-.003 2c.11 0 .22.011.328.034l.401-1.96Zm2.756 4.214a3.559 3.559 0 0 0-2.751-4.213l-.411 1.957a1.558 1.558 0 0 1 1.204 1.845l1.958.411Z" mask="url(#ka)"/></symbol><symbol viewBox="0 0 110 102" id="services-img--exotic-animals" xmlns="http://www.w3.org/2000/svg"><path d="M110 66.804a3.29 3.29 0 0 0-3.289-3.289h-1.027l.451-.452a3.289 3.289 0 1 0-4.651-4.651l-5.104 5.103h-.151a13.258 13.258 0 0 1-10.11-4.669l-4.493-5.275c3.091-4.208 5.55-9.172 7.352-14.856 5.166-1.83 8.828-4.837 10.894-8.953 3.659-7.291 4.953-24.119-3.989-28.64-3.99-2.018-9.154-1.298-14.542 2.026-4.261 2.628-8.173 6.62-10.208 10.42-3.887 7.252-2.363 13.647-1.382 16.347-1.078 3.41-2.49 6.352-4.224 8.834l-4.032-3.434a13.258 13.258 0 0 1-4.668-10.109v-.151l5.103-5.103a3.29 3.29 0 0 0-4.652-4.652l-.452.451v-1.027a3.29 3.29 0 0 0-6.578 0v1.027l-.452-.451a3.29 3.29 0 0 0-4.651 4.652l5.103 5.103v.151a19.828 19.828 0 0 0 6.981 15.117l3.815 3.25c-5.412 4.325-12.734 5.89-21.921 4.65a38.342 38.342 0 0 0-2.29-.237l-5.106-5.995a19.828 19.828 0 0 0-15.117-6.98h-.152l-5.103-5.104a3.29 3.29 0 0 0-4.652 4.652l.452.452H6.128a3.29 3.29 0 0 0 0 6.578h1.027l-.452.452a3.29 3.29 0 0 0 4.652 4.652l5.104-5.104h.151c3.897 0 7.582 1.702 10.108 4.669l1.725 2.024a36.27 36.27 0 0 0-6.221 1.48c-5.519 1.845-10.496 5.051-14.394 9.27-6.721 7.272-9.183 16.342-7.119 26.23 1.52 7.281 4.986 12.44 5.133 12.656a3.29 3.29 0 0 0 5.99-1.48c.017-.15 1.8-15.108 11.008-23.571 1.173-1.078 5.606-4.513 13.424-3.458a75.85 75.85 0 0 0 7.94.661l4.647 6.1a13.258 13.258 0 0 1 2.413 10.87l-.033.149-6.071 3.901a3.29 3.29 0 1 0 3.556 5.535l.537-.345-.218 1.003a3.29 3.29 0 0 0 6.428 1.4l.219-1.004.345.537a3.286 3.286 0 0 0 4.545.99 3.29 3.29 0 0 0 .99-4.546l-3.902-6.072.032-.148a19.828 19.828 0 0 0-3.607-16.256l-1.827-2.397c8.479-.89 15.764-3.678 21.761-8.349a38.644 38.644 0 0 0 3.25-2.839l3.844 4.514a19.827 19.827 0 0 0 15.117 6.98h.151l5.103 5.104a3.281 3.281 0 0 0 2.327.964 3.289 3.289 0 0 0 2.325-5.615l-.451-.452h1.027a3.289 3.289 0 0 0 3.288-3.29Zm-63.79-3.273c-2.87 0-5.894-.214-9.066-.642-10.364-1.398-16.57 3.125-18.756 5.134-5.628 5.174-8.904 12.115-10.772 17.755-1.679-6.149-1.97-14.694 5.043-22.282 5.421-5.866 12.977-9.05 21.198-9.05 1.444 0 2.909.098 4.386.297 12.744 1.72 22.966-1.39 29.958-8.881a3.35 3.35 0 0 0 .273-.282c.026-.032.048-.065.073-.096 3.472-3.852 6.121-8.814 7.853-14.833a3.29 3.29 0 0 0-.247-2.436c-.027-.051-2.579-5.276.779-11.54C80.025 10.9 88.814 4.918 92.915 6.991c1.734.877 2.933 3.991 3.129 8.126.197 4.156-.628 8.856-2.052 11.693-2.075 4.135-6.592 5.53-8.077 5.99-.789.243-2.257.697-2.76 2.443-5.412 18.802-17.82 28.288-36.946 28.287Z"/></symbol><symbol viewBox="0 0 110 97" id="services-img--grooming" xmlns="http://www.w3.org/2000/svg"><path d="M54.785 64.453c-.772 0-1.531.058-2.275.164L45.536 49.2 57.7 21.893c3.904-7.898.758-17.553-7.24-21.553a3.223 3.223 0 0 0-4.377 1.555L35.11 26.155 24.135 1.895A3.223 3.223 0 0 0 19.758.34C11.754 4.342 8.615 14 12.518 21.894L24.696 49.18l-6.945 15.356a16.27 16.27 0 0 0-1.638-.083C7.228 64.453 0 71.682 0 80.567 0 89.45 7.228 96.68 16.113 96.68s16.114-7.229 16.114-16.114c0-.456-.024-.907-.062-1.355l2.965-6.653 3.544 7.94-.002.069c0 8.884 7.228 16.113 16.113 16.113s16.113-7.229 16.113-16.114c0-8.884-7.228-16.113-16.113-16.113ZM18.376 19.206a3.305 3.305 0 0 0-.06-.128c-1.892-3.784-1.048-8.117 1.576-10.926l11.682 25.823-3.325 7.351-9.873-22.12Zm-2.263 71.028c-5.33 0-9.668-4.337-9.668-9.667 0-5.331 4.337-9.668 9.668-9.668 5.331 0 9.668 4.337 9.668 9.668 0 5.33-4.337 9.668-9.668 9.668ZM28.88 70.751a16.233 16.233 0 0 0-4.938-4.261L50.328 8.153c2.642 2.828 3.456 7.165 1.576 10.925a3.197 3.197 0 0 0-.062.13L28.88 70.75Zm12.743.54-2.966-6.647 3.37-7.565 4.396 9.72a16.238 16.238 0 0 0-4.8 4.491Zm13.163 18.944c-5.33 0-9.668-4.338-9.668-9.668 0-5.331 4.337-9.668 9.668-9.668 5.331 0 9.668 4.337 9.668 9.668 0 5.33-4.337 9.668-9.668 9.668ZM100.332 0H80.996a3.223 3.223 0 0 0 0 6.445h9.668v6.446h-9.668a3.223 3.223 0 0 0 0 6.445h9.668v6.445h-9.668a3.223 3.223 0 0 0 0 6.446h9.668v6.445h-9.668a3.223 3.223 0 0 0 0 6.445h9.668v6.446h-9.668a3.223 3.223 0 0 0 0 6.445h9.668v6.445h-9.668a3.223 3.223 0 0 0 0 6.445h9.668v6.446h-9.668a3.223 3.223 0 1 0 0 6.445h9.668v6.445h-9.668a3.223 3.223 0 0 0 0 6.446h19.336c5.331 0 9.668-4.337 9.668-9.668V9.668C110 4.338 105.663 0 100.332 0Zm3.223 87.012a3.227 3.227 0 0 1-3.223 3.222h-3.223V6.445h3.223a3.227 3.227 0 0 1 3.223 3.223v77.344Z"/></symbol><symbol viewBox="0 0 110 110" id="services-img--lab" xmlns="http://www.w3.org/2000/svg"><path d="M100.332 45.117h-3.223V18.784c3.752-1.33 6.446-4.914 6.446-9.116 0-5.33-4.337-9.668-9.668-9.668H68.106c-5.331 0-9.668 4.337-9.668 9.668 0 4.202 2.693 7.786 6.445 9.116v26.333H45.117V18.784c3.752-1.33 6.446-4.914 6.446-9.116 0-5.33-4.338-9.668-9.669-9.668h-25.78c-5.332 0-9.669 4.337-9.669 9.668 0 4.202 2.694 7.786 6.446 9.116v26.333H9.668C4.338 45.117 0 49.454 0 54.785v45.547C0 105.663 4.337 110 9.668 110h90.664c5.331 0 9.668-4.337 9.668-9.668V54.785c0-5.33-4.337-9.668-9.668-9.668ZM68.106 6.445h25.78a3.226 3.226 0 0 1 3.223 3.223 3.226 3.226 0 0 1-3.222 3.223 3.223 3.223 0 0 0-3.223 3.222v16.114h-9.668a3.223 3.223 0 0 0 0 6.445h9.668v6.445H71.328V16.113a3.223 3.223 0 0 0-3.222-3.222 3.226 3.226 0 0 1-3.223-3.223 3.226 3.226 0 0 1 3.223-3.223Zm12.89 58.008h9.668v16.543c0 5.331-4.337 9.668-9.668 9.668-5.33 0-9.668-4.337-9.668-9.668V51.563h19.336v6.445h-9.668a3.223 3.223 0 0 0 0 6.445ZM16.113 6.445h25.782a3.226 3.226 0 0 1 3.222 3.223 3.226 3.226 0 0 1-3.222 3.223 3.223 3.223 0 0 0-3.223 3.222v16.114h-9.668a3.223 3.223 0 0 0 0 6.445h9.668v6.445H19.336V16.113a3.223 3.223 0 0 0-3.223-3.222 3.226 3.226 0 0 1-3.222-3.223 3.226 3.226 0 0 1 3.222-3.223Zm12.89 58.008h9.669v16.543c0 5.331-4.337 9.668-9.668 9.668-5.331 0-9.668-4.337-9.668-9.668V51.563h19.336v6.445h-9.668a3.223 3.223 0 0 0 0 6.445Zm74.552 35.879a3.227 3.227 0 0 1-3.223 3.223H9.668a3.227 3.227 0 0 1-3.223-3.223V54.785a3.226 3.226 0 0 1 3.223-3.222h3.223v29.433c0 8.885 7.228 16.113 16.113 16.113s16.113-7.228 16.113-16.113V51.563h19.766v29.433c0 8.885 7.228 16.113 16.113 16.113S97.11 89.881 97.11 80.996V51.563h3.223a3.227 3.227 0 0 1 3.223 3.222v45.547Z"/></symbol><symbol viewBox="0 0 110 110" id="services-img--neurology" xmlns="http://www.w3.org/2000/svg"><path d="M83.992 34.951a29.065 29.065 0 0 0-.41-4.399c7.662 5.266 16.211 2.493 19.157-5.104 3.601-9.286-4.843-19.185-15.087-23.39-9.035-3.708-19.006-2.735-24.277 5.63a28.908 28.908 0 0 0-8.379-1.235 28.9 28.9 0 0 0-8.38 1.236c-5.27-8.366-15.24-9.339-24.276-5.63C12.096 6.263 3.653 16.162 7.254 25.449c2.939 7.58 11.477 10.381 19.157 5.103a29.052 29.052 0 0 0-.41 4.4C16.363 36.935 0 41.736 0 51.566c0 2.12.795 4.048 2.09 5.737l.004.006v.001l23.9 31.224v11.798a3.22 3.22 0 0 0 1.652 2.813c.5.28 12.445 6.854 27.35 6.854 14.905 0 26.85-6.574 27.35-6.854a3.222 3.222 0 0 0 1.652-2.813V88.535l23.9-31.225c1.289-1.657 2.094-3.634 2.094-5.744 0-9.826-16.351-14.628-26-16.615Zm1.213-26.93c7.23 2.968 13.58 9.796 11.525 15.098-1.778 4.585-7 5.208-11.73.19l-.046-.05c-2.952-3.132-6.59-6.991-9.888-8.72a29.177 29.177 0 0 0-5.66-4.246c4.7-6.137 13.1-3.38 15.799-2.272Zm-30.209 4.877c12.438 0 22.557 10.119 22.557 22.557v12.89c0 5.705-2.101 11.08-5.938 15.251-4.154.448-8.636.738-13.397.83v-8.302l5.501-5.5a3.223 3.223 0 0 0-2.278-5.502H48.55a3.223 3.223 0 0 0-2.279 5.501l5.502 5.501v8.3a152.51 152.51 0 0 1-13.398-.828c-3.836-4.171-5.937-9.546-5.937-15.252v-12.89c0-12.437 10.119-22.556 22.557-22.556ZM25.036 23.26l-.045.048c-4.728 5.018-9.95 4.396-11.729-.19-2.082-5.37 4.427-12.185 11.525-15.098 2.7-1.108 11.1-3.865 15.798 2.272a29.168 29.168 0 0 0-5.66 4.246c-3.298 1.73-6.937 5.59-9.888 8.722ZM6.696 52.571c-.168-.354-.25-.682-.25-1.004 0-2.34 5.385-6.919 19.549-10.029v6.806c0 4.977 1.245 9.757 3.584 13.992-5.866-1.066-20.361-4.464-22.883-9.764Zm10.018 13.235c6.505 2.116 14.59 3.657 23.625 4.461L43.45 89.25c-6.061-1.44-10.589-3.566-12.108-4.332L16.713 65.806Zm60.84 32.537c-3.531 1.651-12.331 5.212-22.557 5.212-10.177 0-19.014-3.567-22.557-5.217v-5.85c4.915 2.002 13.146 4.622 22.557 4.622 9.411 0 17.642-2.62 22.557-4.623v5.856Zm1.095-13.422c-2.378 1.205-12.106 5.745-23.652 5.745-1.649 0-3.263-.094-4.825-.258l-3.229-19.694c2.628.124 5.317.188 8.054.188 14.925 0 28.422-1.888 38.283-5.095L78.649 84.92Zm24.141-31.54c-2.567 3.34-10.561 6.809-22.375 8.955 2.34-4.235 3.584-9.015 3.584-13.992V41.54c14.164 3.11 19.549 7.688 19.549 10.028 0 .434-.153 1.028-.758 1.814Z"/></symbol><symbol viewBox="0 0 110 110" id="services-img--oncology" xmlns="http://www.w3.org/2000/svg"><path d="M109.057.944a3.223 3.223 0 0 0-4.558 0L89.424 16.019c-3.593-1.712-8.031-1.084-11.002 1.887l-7.228 7.228c-3.593-1.712-8.032-1.084-11.002 1.887L28.812 58.4a31.608 31.608 0 0 0-11.907-2.309h-.01c-5.33 0-9.667 4.337-9.667 9.668 0 5.33 4.337 9.667 9.667 9.667 1.187 0 2.364.178 3.493.513L7.78 88.547 5.501 86.27a3.222 3.222 0 1 0-4.557 4.557l18.23 18.23a3.222 3.222 0 1 0 4.558-4.557l-2.28-2.279L34.06 89.612a12.28 12.28 0 0 1 .513 3.493 9.604 9.604 0 0 0 2.831 6.836 9.607 9.607 0 0 0 6.836 2.831c5.33 0 9.667-4.337 9.667-9.667a31.612 31.612 0 0 0-2.309-11.916L82.98 49.808a9.67 9.67 0 0 0 1.891-11.006l7.224-7.224a9.67 9.67 0 0 0 1.891-11.006L109.056 5.5a3.222 3.222 0 0 0 .001-4.557ZM16.896 97.662l-4.558-4.557 13.673-13.673 4.558 4.558-13.673 13.672Zm27.345-1.335a3.218 3.218 0 0 1-3.222-3.222c0-5.045-2.095-9.875-5.501-13.28l-5.341-5.342c-3.398-3.398-8.225-5.501-13.28-5.501a3.226 3.226 0 0 1-3.223-3.222 3.226 3.226 0 0 1 3.223-3.222h.008c6.733 0 13.065 2.624 17.83 7.388l5.34 5.34c4.766 4.767 7.39 11.102 7.388 17.839a3.226 3.226 0 0 1-3.222 3.222ZM57.914 65.76l-2.279-2.28a3.222 3.222 0 1 0-4.557 4.558l2.278 2.28-4.943 4.943a32.062 32.062 0 0 0-3.78-4.552l-5.341-5.341a32.026 32.026 0 0 0-4.552-3.78L48.8 47.53l13.67 13.672-4.557 4.558Zm20.508-20.51-2.278 2.28-2.28-2.279a3.223 3.223 0 0 0-4.557 4.558l2.28 2.279-4.559 4.557-13.672-13.673L64.75 31.578a3.227 3.227 0 0 1 4.557 0l9.115 9.115a3.22 3.22 0 0 1 0 4.558Zm9.115-18.23-6.836 6.837-4.557-4.557 6.836-6.837a3.227 3.227 0 0 1 4.557 0 3.22 3.22 0 0 1 0 4.558Z"/></symbol><symbol viewBox="0 0 110 110" id="services-img--ophthalmology" xmlns="http://www.w3.org/2000/svg"><path d="M110 22.773V3.223A3.223 3.223 0 0 0 106.777 0C94.815 0 82.578 3.456 72.056 9.77a3.18 3.18 0 0 0-.24-.103A48.173 48.173 0 0 0 55 6.66a48.335 48.335 0 0 0-17.085 3.096C27.403 3.456 15.151 0 3.223 0A3.223 3.223 0 0 0 0 3.223v19.55c0 6.792 3.305 13.401 8.857 17.753A48.48 48.48 0 0 0 6.66 55c0 12.52 4.888 24.725 13.446 33.666 2.17 9.053 10.05 14.889 18.78 14.889 1.03 0 2.046-.084 3.043-.24C44.93 107.49 49.74 110 55 110s10.071-2.51 13.07-6.685c.998.156 2.014.24 3.043.24 8.803 0 16.595-5.882 18.775-14.883C98.45 79.73 103.34 67.523 103.34 55c0-3.539-.381-7.03-1.132-10.44C108.365 39.725 110 28.22 110 22.774Zm-103.555 0V6.538c8.315.474 16.702 2.765 24.313 6.621-8.171 4.752-15.106 12.027-19.4 20.998-3.107-3.066-4.913-7.187-4.913-11.384ZM55 103.555a9.624 9.624 0 0 1-6.533-2.537A19.256 19.256 0 0 0 55 94.894a19.259 19.259 0 0 0 6.533 6.124A9.624 9.624 0 0 1 55 103.555Zm-3.018-30.35A3.228 3.228 0 0 1 55 71.114c1.38 0 2.56.871 3.018 2.093L55 76.224l-3.018-3.018Zm31.643 13.96c-1.486 6.158-6.766 9.944-12.512 9.944-7.9 0-13.971-6.996-12.733-15.15l5.344-5.344a3.223 3.223 0 0 0 .944-2.28c0-5.33-4.337-9.667-9.668-9.667-5.33 0-9.668 4.337-9.668 9.668 0 .855.34 1.674.944 2.279l5.344 5.344c1.242 8.178-4.857 15.15-12.733 15.15-7.217 0-12.89-5.83-12.89-13.105 0-3.443 1.34-6.68 3.774-9.115a3.222 3.222 0 1 0-4.557-4.558 19.227 19.227 0 0 0-4.912 8.322A42.666 42.666 0 0 1 13.105 55c0-13.437 6.36-25.415 16.227-33.087L83.854 85.98a3.23 3.23 0 0 0-.23 1.187Zm12.61-24.75L82.746 46.473a3.223 3.223 0 0 0-4.92 4.163l16.34 19.312a42.281 42.281 0 0 1-6.125 11.007l-53.29-62.62a41.595 41.595 0 0 1 12.009-4.414l31.066 36.715a3.223 3.223 0 0 0 4.92-4.163L54.518 13.112a41.69 41.69 0 0 1 14.406 2.362l25.602 25.602A41.769 41.769 0 0 1 96.894 55a42.25 42.25 0 0 1-.659 7.415Zm3.728-24.937a3.21 3.21 0 0 0-.372-.453L76.948 14.383c8.201-4.6 17.433-7.324 26.607-7.845v16.236c0 4.907-1.336 11.14-3.593 14.705Z"/><path d="M35.664 45.332c-5.33 0-9.668 4.337-9.668 9.668 0 5.33 4.337 9.668 9.668 9.668 5.331 0 9.668-4.337 9.668-9.668 0-5.33-4.337-9.668-9.668-9.668Zm0 12.89A3.226 3.226 0 0 1 32.441 55a3.226 3.226 0 0 1 3.223-3.223A3.226 3.226 0 0 1 38.887 55a3.226 3.226 0 0 1-3.223 3.223Z"/></symbol><symbol viewBox="0 0 110 110" id="services-img--orthopedics" xmlns="http://www.w3.org/2000/svg"><path d="m103.88 19.333-.006-.006a.023.023 0 0 1-.005-.005l-.01-.01-.004-.004-.005-.005a.03.03 0 0 1-.006-.006l-.002-.001a19.21 19.21 0 0 0-8.692-4.987 18.971 18.971 0 0 0-4.95-8.656c-7.538-7.537-19.801-7.537-27.339 0-6.89 6.89-7.38 17.465-2.09 24.873L49.944 41.353a3.221 3.221 0 0 0-.881 2.91l2.278 11.391a3.222 3.222 0 0 0 2.527 2.527L65.26 60.46a3.222 3.222 0 0 0 2.91-.882l10.827-10.827c7.482 5.344 18.076 4.731 24.872-2.09 7.534-7.533 7.537-19.79.011-27.328Zm-4.567 22.771-.091.09-.004.004c-5.584 5.474-14.024 4.28-18.033.003l-.098-.097-.007-.007a3.212 3.212 0 0 0-2.327-.936c-.863.015-1.66.382-2.181.903l-11.74 11.739-7.594-1.52-1.519-7.593 11.699-11.698a3.222 3.222 0 0 0 0-4.557c-5.037-5.037-5.037-13.188 0-18.226 5.024-5.024 13.2-5.024 18.225 0a12.46 12.46 0 0 1 2.494 3.57 19.243 19.243 0 0 0-11.606 5.544 3.222 3.222 0 1 0 4.556 4.556c5.28-5.28 13.528-4.685 18.214-.012l.002.002.004.003.006.007c5.024 5.024 5.024 13.2 0 18.225ZM39.03 34.518l-4.556-4.557a3.222 3.222 0 1 0-4.557 4.557l4.557 4.556a3.222 3.222 0 1 0 4.556-4.556Zm-2.278 8.047h-9.113a3.222 3.222 0 1 0 0 6.443h9.113a3.222 3.222 0 1 0 0-6.444Zm8.989-18.103a3.222 3.222 0 0 0-3.221 3.222v9.113a3.222 3.222 0 0 0 6.443 0v-9.113a3.222 3.222 0 0 0-3.222-3.222Zm34.297 51.064-4.556-4.557a3.222 3.222 0 1 0-4.557 4.557l4.557 4.556a3.222 3.222 0 1 0 4.556-4.556ZM64 70.026a3.222 3.222 0 0 0-3.223 3.222v9.113a3.222 3.222 0 0 0 6.444 0v-9.113a3.222 3.222 0 0 0-3.222-3.222Zm18.316-9.205h-9.113a3.222 3.222 0 0 0 0 6.444h9.113a3.222 3.222 0 0 0 0-6.444Z"/><path d="M60.341 65.484a3.224 3.224 0 0 0-2.453-2.23l-9.285-1.858-1.857-9.285a3.221 3.221 0 0 0-5.43-1.653L30.53 61.178c-7.545-5.375-18.114-4.68-24.878 2.083-7.537 7.538-7.537 19.801 0 27.339 2.4 2.4 5.361 4.087 8.662 4.951 3.796 14.422 21.85 19.215 32.346 8.718 6.777-6.777 7.481-17.313 2.096-24.865l10.77-10.706a3.22 3.22 0 0 0 .814-3.214Zm-18.23 11.44-.004.004-.002.003a3.226 3.226 0 0 0 0 4.556c5.044 5.045 5.025 13.2 0 18.226-7.487 7.487-20.345 3.264-21.818-7.33-.616-4.423.927-8.23 3.592-10.896a3.222 3.222 0 1 0-4.557-4.556 19.236 19.236 0 0 0-5.54 11.605 12.456 12.456 0 0 1-3.573-2.492c-5.024-5.025-5.024-13.201 0-18.226 5.025-5.025 13.201-5.025 18.226 0a3.222 3.222 0 0 0 4.55.007l8.619-8.568 1.102 5.51a3.222 3.222 0 0 0 2.527 2.527l5.467 1.093-8.589 8.537Z"/></symbol><symbol viewBox="0 0 110 110" id="services-img--pharmacy" xmlns="http://www.w3.org/2000/svg"><path d="m95.26 55.753 6.239-6.24c11.334-11.333 11.335-29.678 0-41.012-11.333-11.334-29.677-11.335-41.012 0-2.42 2.418-49.792 49.791-51.986 51.986-11.334 11.333-11.335 29.678 0 41.012 11.333 11.334 29.678 11.335 41.012 0l6.24-6.239c4.987 8.79 14.432 14.733 25.24 14.733 15.99 0 29-13.01 29-29 0-10.808-5.943-20.253-14.733-25.24Zm-43.268 25.24c0 2.714.377 5.343 1.077 7.837l-8.113 8.112c-8.814 8.815-23.082 8.816-31.898 0-8.815-8.814-8.816-23.082 0-31.898l23.518-23.518L58.17 63.12a28.858 28.858 0 0 0-6.178 17.873Zm25.779 22.325c-10.917-1.569-19.334-10.982-19.334-22.325 0-11.344 8.417-20.757 19.334-22.325v44.65ZM62.683 58.52 41.132 36.97l23.912-23.911c8.814-8.815 23.082-8.816 31.898 0 8.815 8.814 8.816 23.082 0 31.898L88.83 53.07a28.928 28.928 0 0 0-7.837-1.077 28.865 28.865 0 0 0-18.309 6.528Zm21.531 44.798v-44.65c10.917 1.569 19.334 10.982 19.334 22.325s-8.417 20.756-19.334 22.325Z"/></symbol><symbol viewBox="0 0 132 92" id="services-img--reproduction" xmlns="http://www.w3.org/2000/svg"><path d="M121.167 0h-15.77c-4.357 0-8.119 2.587-9.837 6.304-2.798-.652-5.806-.981-8.98-.981-3.172 0-6.181.33-8.98.98C75.883 2.588 72.12 0 67.765 0h-15.77C46.02 0 41.16 4.86 41.16 10.832c0 2.198.663 4.452 1.82 6.187l6.846 10.27c1.097 1.644 2.663 2.944 4.467 3.778-3.352 13.428-2.31 36.088-2.31 35.643 0 10.272 8.357 18.629 18.629 18.629 1.681 0 3.31-.225 4.861-.644 2.46 3.751 6.669 6.144 11.106 6.144 4.438 0 8.646-2.393 11.107-6.144 1.55.42 3.18.644 4.861.644 10.272 0 18.629-8.357 18.629-18.63 0-13.558.646-24.814-2.282-35.655 1.792-.835 3.348-2.129 4.438-3.765l6.847-10.27c1.157-1.735 1.82-3.99 1.82-6.186C132 4.86 127.14 0 121.167 0Zm-66.91 24.337-6.848-10.271c-.57-.856-.925-2.095-.925-3.234a5.516 5.516 0 0 1 5.51-5.51h15.77a5.516 5.516 0 0 1 5.51 5.51c0 1.139-.355 2.378-.925 3.234L65.5 24.337a5.498 5.498 0 0 1-4.584 2.453h-1.899c-1.9 0-3.768-.963-4.762-2.453Zm32.324 61.18c-2.35 0-4.602-1.148-6.119-3.002a18.777 18.777 0 0 0 6.118-6.218 18.777 18.777 0 0 0 6.119 6.218c-1.517 1.854-3.768 3.001-6.118 3.001Zm-2.493-25.063a2.666 2.666 0 0 1 2.493-1.728c1.139 0 2.113.72 2.492 1.728l-2.492 2.492-2.493-2.492Zm31.767 6.256c0 7.337-5.97 13.306-13.307 13.306-6.98 0-12.722-5.403-13.264-12.246l4.5-4.501c.5-.5.78-1.176.78-1.882 0-4.402-3.581-7.984-7.983-7.984-4.403 0-7.984 3.582-7.984 7.984 0 .706.28 1.383.78 1.882l4.5 4.501c-.542 6.844-6.284 12.246-13.264 12.246-7.337 0-13.307-5.97-13.307-13.306 0-.682-.992-22.038 2.214-34.597h1.397c3.63 0 7-1.803 9.013-4.824l6.847-10.27c1.032-1.548 1.67-3.51 1.795-5.475 2.467-.596 5.15-.899 8.008-.899 2.858 0 5.542.303 8.009.899.125 1.965.763 3.927 1.795 5.475l6.847 10.27a10.862 10.862 0 0 0 1.634 1.923 13.226 13.226 0 0 0-7.64-2.422c-7.337 0-13.306 5.97-13.306 13.307 0 7.337 5.97 13.306 13.307 13.306 7.337 0 13.306-5.97 13.306-13.306 0-3.9-1.687-7.414-4.369-9.85a10.813 10.813 0 0 0 6.081 1.866h1.423c2.823 10.125 2.188 20.722 2.188 34.597ZM105.21 40.097c0 4.402-3.582 7.984-7.984 7.984-4.403 0-7.984-3.582-7.984-7.984 0-4.403 3.581-7.984 7.984-7.984 4.402 0 7.984 3.581 7.984 7.984Zm20.542-26.03-6.847 10.27c-.994 1.49-2.863 2.453-4.762 2.453h-1.899a5.497 5.497 0 0 1-4.584-2.453h-.001l-6.847-10.27c-.57-.857-.925-2.096-.925-3.235a5.516 5.516 0 0 1 5.51-5.51h15.771a5.516 5.516 0 0 1 5.509 5.51c0 1.139-.354 2.378-.925 3.234Z"/><path d="M75.936 42.758a2.661 2.661 0 1 0 0-5.322 2.661 2.661 0 0 0 0 5.322Zm21.29 0a2.661 2.661 0 1 0 0-5.322 2.661 2.661 0 0 0 0 5.322Zm-54.149.307h-8.294a5.704 5.704 0 0 0-5.173 3.315 20.849 20.849 0 0 0-4.723-.516 20.85 20.85 0 0 0-4.723.516 5.703 5.703 0 0 0-5.173-3.316H6.697A5.704 5.704 0 0 0 1 48.762c0 1.156.349 2.342.957 3.254l3.6 5.401a5.683 5.683 0 0 0 2.35 1.987c-1.763 7.062-1.215 18.98-1.215 18.746 0 5.402 4.395 9.797 9.797 9.797.884 0 1.742-.118 2.557-.339 1.294 1.974 3.507 3.232 5.841 3.232s4.547-1.258 5.841-3.232c.816.221 1.673.34 2.557.34 5.402 0 9.797-4.396 9.797-9.798 0-7.131.34-13.05-1.2-18.753a5.68 5.68 0 0 0 2.334-1.98l3.601-5.401c.608-.912.957-2.098.957-3.254a5.704 5.704 0 0 0-5.697-5.697ZM7.887 55.864l-3.601-5.402c-.3-.45-.487-1.102-.487-1.7 0-1.598 1.3-2.898 2.898-2.898h8.294c1.598 0 2.898 1.3 2.898 2.898 0 .598-.187 1.25-.487 1.7l-3.6 5.402a2.892 2.892 0 0 1-2.412 1.29h-.998c-1 0-1.982-.506-2.505-1.29Zm17 32.175c-1.236 0-2.42-.603-3.218-1.578a9.876 9.876 0 0 0 3.218-3.27 9.876 9.876 0 0 0 3.218 3.27c-.798.975-1.982 1.578-3.218 1.578Zm-1.31-13.18c.199-.53.711-.91 1.31-.91.6 0 1.112.38 1.31.91l-1.31 1.31-1.31-1.31Zm16.706 3.29a7.006 7.006 0 0 1-6.998 6.998c-3.671 0-6.691-2.842-6.976-6.44l2.367-2.368a1.4 1.4 0 0 0 .41-.99 4.204 4.204 0 0 0-4.199-4.199 4.204 4.204 0 0 0-4.199 4.2c0 .37.148.727.41.989l2.367 2.367c-.285 3.6-3.305 6.44-6.976 6.44a7.006 7.006 0 0 1-6.998-6.997c0-.359-.522-11.59 1.165-18.196h.734c1.91 0 3.681-.948 4.74-2.537l3.601-5.401c.543-.814.878-1.846.944-2.88 1.297-.313 2.71-.472 4.212-.472 1.503 0 2.915.16 4.212.473.066 1.033.401 2.065.944 2.879l3.6 5.401c.25.375.54.713.86 1.012a6.956 6.956 0 0 0-4.017-1.274 7.006 7.006 0 0 0-6.998 6.998 7.006 7.006 0 0 0 6.998 6.998 7.006 7.006 0 0 0 6.998-6.998 6.98 6.98 0 0 0-2.298-5.18c.93.63 2.038.981 3.198.981h.749c1.484 5.325 1.15 10.898 1.15 18.196Zm-5.599-13.997a4.204 4.204 0 0 1-4.198 4.2 4.204 4.204 0 0 1-4.2-4.2 4.204 4.204 0 0 1 4.2-4.199 4.204 4.204 0 0 1 4.198 4.2Zm10.804-13.69-3.6 5.402c-.523.784-1.506 1.29-2.505 1.29h-.999a2.892 2.892 0 0 1-2.411-1.29l-3.601-5.402c-.3-.45-.487-1.102-.487-1.7 0-1.598 1.3-2.898 2.898-2.898h8.294c1.598 0 2.898 1.3 2.898 2.898 0 .598-.187 1.25-.487 1.7Z"/><path d="M19.288 65.552a1.4 1.4 0 1 0 0-2.799 1.4 1.4 0 0 0 0 2.8Zm11.198 0a1.4 1.4 0 1 0 0-2.799 1.4 1.4 0 0 0 0 2.8Z"/></symbol><symbol viewBox="0 0 100 110" id="services-img--surgery" xmlns="http://www.w3.org/2000/svg"><path d="M96.047 1.781a3.223 3.223 0 0 0-5.159-.84c-35.642 35.563-24.78 24.717-37.656 37.594L6.385 78.175c-8.053 6.813-8.563 19.082-1.104 26.54 7.484 7.484 19.741 6.933 26.541-1.103l35.895-42.421c2.617-3.094 2.95-7.466 1.093-10.89l4.835-4.834 2.279 2.278a3.222 3.222 0 0 0 4.55.008l9.672-9.609a31.462 31.462 0 0 0 5.9-36.363ZM26.902 99.448c-4.394 5.193-12.258 5.514-17.064.71-4.81-4.812-4.477-12.675.71-17.064l10.123-8.565 14.796 14.796-8.565 10.123Zm12.743-15.06L25.608 70.35l4.938-4.177L43.823 79.45l-4.178 4.937Zm8.356-9.875L35.483 61.996l4.937-4.178 11.758 11.758-4.177 4.937Zm14.795-17.486-6.44 7.612L45.358 53.64l9.875-8.355 7.382 7.382a3.241 3.241 0 0 1 .181 4.36Zm1.734-11.56-4.558-4.558 4.558-4.558 4.558 4.558-4.558 4.558Zm21.066-11.888-7.386 7.337-9.12-9.12L91.963 8.974a25.017 25.017 0 0 1-6.367 24.605Z"/></symbol><symbol viewBox="0 0 110 110" id="services-img--therapy" xmlns="http://www.w3.org/2000/svg"><path d="M93.887 32.441c-8.885 0-16.114 7.229-16.114 16.114 0 7.781 5.545 14.291 12.891 15.789v32.765a6.453 6.453 0 0 1-6.445 6.446 6.453 6.453 0 0 1-6.446-6.446V84.22c0-7.108-5.782-12.89-12.89-12.89-7.108 0-12.89 5.782-12.89 12.89v12.89a6.453 6.453 0 0 1-6.446 6.446c-3.61 0-6.66-2.952-6.66-6.446V70.943c3.892-.932 7.403-3.497 9.437-7.056 0 0 20.49-36.067 21.238-37.381a13.431 13.431 0 0 0 1.766-6.652c0-7.22-5.736-13.122-12.89-13.396V3.223a3.223 3.223 0 0 0-6.446 0v12.89a3.223 3.223 0 0 0 6.446 0v-3.201c3.598.266 6.445 3.277 6.445 6.942a6.98 6.98 0 0 1-.921 3.461l-12.51 22.017H19.876L7.363 23.308a6.974 6.974 0 0 1-.918-3.454c0-3.665 2.847-6.676 6.446-6.942v3.201a3.223 3.223 0 0 0 6.445 0V3.223a3.223 3.223 0 0 0-6.445 0v3.235C5.737 6.732 0 12.634 0 19.854c0 2.329.61 4.63 1.763 6.645l21.245 37.395c2.031 3.554 5.541 6.118 9.433 7.049v26.166c0 7.167 6.017 12.891 13.106 12.891 7.108 0 12.89-5.783 12.89-12.89V84.218a6.453 6.453 0 0 1 6.446-6.446 6.453 6.453 0 0 1 6.445 6.446v12.89c0 7.108 5.783 12.891 12.89 12.891 7.109 0 12.891-5.783 12.891-12.89V64.343C104.455 62.847 110 56.336 110 48.554c0-8.884-7.228-16.113-16.113-16.113ZM35.664 64.883c-2.791 0-5.629-1.683-7.056-4.18l-5.07-8.926H47.79l-5.067 8.919c-1.431 2.504-4.268 4.187-7.06 4.187Zm58.223-6.66c-5.331 0-9.668-4.337-9.668-9.668 0-5.331 4.337-9.668 9.668-9.668 5.33 0 9.668 4.337 9.668 9.668 0 5.33-4.337 9.668-9.668 9.668Z"/><path d="M93.887 51.777a3.223 3.223 0 1 0 0-6.445 3.223 3.223 0 0 0 0 6.445Z"/></symbol><symbol viewBox="0 0 97 110" id="services-img--visual-diagnostics" xmlns="http://www.w3.org/2000/svg"><path d="M48.34 32.227a3.223 3.223 0 1 0 0-6.446 3.223 3.223 0 0 0 0 6.446Z"/><path d="M72.15 58.558a29.201 29.201 0 0 0 5.194-16.663V28.998C77.34 13.008 64.33 0 48.34 0 32.347 0 19.336 13.011 19.336 29.004v12.89a29.203 29.203 0 0 0 5.193 16.664C10.502 60.702 0 72.925 0 87.227v19.55A3.223 3.223 0 0 0 3.223 110h90.234a3.223 3.223 0 0 0 3.223-3.223v-19.55c0-14.254-10.456-26.518-24.53-28.669ZM48.34 6.445c11.345 0 20.759 8.418 22.327 19.336H64.13c-1.497-7.346-8.008-12.89-15.79-12.89-7.78 0-14.291 5.544-15.788 12.89h-6.539C27.581 14.864 36.995 6.445 48.34 6.445Zm9.668 22.559c0 5.33-4.337 9.668-9.668 9.668-5.331 0-9.668-4.337-9.668-9.668 0-5.331 4.337-9.668 9.668-9.668 5.33 0 9.668 4.337 9.668 9.668ZM25.78 32.227h6.77c1.497 7.346 8.007 12.89 15.789 12.89 7.781 0 14.292-5.544 15.789-12.89h6.77v9.668c0 12.557-10.12 22.773-22.56 22.773-5.577 0-10.688-2.055-14.63-5.454a3.19 3.19 0 0 0-.2-.175 22.819 22.819 0 0 1-7.728-17.145v-9.667Zm-3.22 51.777a3.226 3.226 0 0 1 3.222 3.223 3.226 3.226 0 0 1-3.222 3.222 3.226 3.226 0 0 1-3.223-3.222 3.226 3.226 0 0 1 3.223-3.223Zm67.675 19.551H6.445V87.227c0-8.712 5.049-16.666 12.89-20.399v11.285c-3.75 1.33-6.444 4.912-6.444 9.114 0 5.33 4.337 9.667 9.668 9.667 5.33 0 9.668-4.337 9.668-9.667 0-4.202-2.695-7.784-6.446-9.114V64.89a23.06 23.06 0 0 1 4.452-.189c4.966 4.01 11.263 6.411 18.107 6.411 5.958 0 11.501-1.82 16.113-4.936v5.26c-7.346 1.498-12.89 8.008-12.89 15.79v3.222a3.223 3.223 0 0 0 0 6.445h6.445a3.223 3.223 0 0 0 0-6.445v-3.222c0-5.331 4.337-9.668 9.668-9.668 5.33 0 9.668 4.337 9.668 9.668v3.222a3.223 3.223 0 0 0 0 6.445h6.445a3.223 3.223 0 0 0 0-6.445v-3.222c0-7.782-5.545-14.292-12.89-15.79V64.89c11.126 1.57 19.335 11.214 19.335 22.336v16.328Z"/></symbol><symbol viewBox="0 0 40 40" id="vk" xmlns="http://www.w3.org/2000/svg"><path fill-rule="evenodd" clip-rule="evenodd" d="M40 20c0 11.046-8.954 20-20 20S0 31.046 0 20 8.954 0 20 0s20 8.954 20 20Zm-19.725 8.937H18.72s-3.43.209-6.449-2.97C8.98 22.499 6.07 15.617 6.07 15.617s-.167-.45.015-.669c.205-.245.762-.26.762-.26l3.715-.025s.35.059.601.245c.207.153.322.44.322.44s.6 1.536 1.396 2.925c1.552 2.712 2.275 3.306 2.802 3.015.768-.424.537-3.834.537-3.834s.015-1.238-.386-1.789c-.31-.427-.896-.552-1.154-.587-.209-.028.134-.519.579-.74.668-.33 1.85-.35 3.244-.335 1.087.011 1.4.08 1.825.184.985.24.955 1.012.888 2.677-.02.497-.042 1.074-.042 1.74 0 .15-.005.31-.01.475-.022.852-.049 1.828.506 2.19.285.187.98.029 2.722-2.96.825-1.418 1.444-3.083 1.444-3.083s.135-.297.345-.425c.215-.13.505-.09.505-.09l3.909-.024s1.175-.142 1.365.394c.2.563-.44 1.877-2.036 4.03-1.518 2.046-2.255 2.797-2.185 3.463.051.484.53.924 1.448 1.785 1.924 1.806 2.437 2.755 2.559 2.98l.022.04c.861 1.445-.955 1.558-.955 1.558l-3.472.05s-.746.149-1.728-.534c-.514-.356-1.016-.938-1.494-1.493-.731-.847-1.407-1.63-1.984-1.446-.968.31-.937 2.42-.937 2.42s.007.45-.214.69c-.24.261-.71.313-.71.313Z"/></symbol><symbol viewBox="0 0 40 40" id="youtube" xmlns="http://www.w3.org/2000/svg"><path fill-rule="evenodd" clip-rule="evenodd" d="M20 0C8.956 0 0 8.956 0 20s8.956 20 20 20 20-8.956 20-20S31.044 0 20 0Zm12.497 20.02s0 4.056-.515 6.012a3.132 3.132 0 0 1-2.203 2.203c-1.956.515-9.779.515-9.779.515s-7.803 0-9.78-.535a3.132 3.132 0 0 1-2.202-2.203C7.503 24.076 7.503 20 7.503 20s0-4.056.515-6.012a3.195 3.195 0 0 1 2.203-2.223C12.177 11.25 20 11.25 20 11.25s7.823 0 9.78.535a3.132 3.132 0 0 1 2.202 2.203c.536 1.956.515 6.032.515 6.032ZM24.015 20l-6.506 3.747v-7.494L24.015 20Z"/></symbol></svg>