<svg width="84" height="76" fill="none" xmlns="http://www.w3.org/2000/svg"><path fill-rule="evenodd" clip-rule="evenodd" d="M65.56 1.61C60.529-1.37 54.027.217 51.163 5.233l-14.724 25.79-10.676-2.03c.542-6.604-4.022-12.737-10.64-13.995a12.57 12.57 0 0 0-14.8 10.298c-1.185 7.016 3.516 13.782 10.504 15.11 4.796.913 9.42-.974 12.233-4.515l13.075 2.486-6.558 11.485c-4.542-.167-8.987 2.104-11.393 6.316-3.505 6.14-1.352 14.073 4.808 17.721 6.161 3.649 13.995 1.63 17.5-4.509 3.319-5.813 1.562-13.233-3.864-17.102l5.354-9.38 29.355 5.582c5.71 1.086 11.14-2.799 12.11-8.53L47.56 33.137l18-31.528ZM15.855 34.226c-3.319 1.52-7.285.02-8.858-3.351-1.573-3.372-.158-7.338 3.16-8.859 3.32-1.52 7.285-.02 8.858 3.352 1.573 3.371.159 7.337-3.16 8.858Zm7.296 31.29c1.573 3.372 5.539 4.872 8.857 3.352 3.32-1.521 4.734-5.487 3.16-8.859-1.572-3.371-5.537-4.872-8.857-3.351-3.318 1.52-4.733 5.487-3.16 8.858Z" fill="#FFC59E"/></svg>