<svg width="80" height="95" fill="none" xmlns="http://www.w3.org/2000/svg"><path d="M42.094 33.03c.435-.146.986-.859 1.014-1.311.637-10.908-8.37-25.448-11.613-30.303-2.611 1.04-5.152 2.723-7.497 5.287 0 0-4.685 3.143-6.347 18.418 8.762 11.346 19.649 9.49 24.443 7.91Z" fill="#FFC59E"/><path d="m76.842 13.67-14.354-3.504s-.41-3.463-4.48-4.886C55.043 4.24 44.82-1.635 34.763.44c3.803 5.788 12.262 20.055 11.593 31.466-.1 1.795-1.526 3.648-3.24 4.215a26.532 26.532 0 0 1-8.203 1.308c-5.21 0-11.752-1.602-17.646-7.761a118.335 118.335 0 0 0-.194 6.365C17.006 47.847 2 59.049 2 59.049l-2 4.143a54.225 54.225 0 0 0 18.415 21.863c.36-5.643 1.775-10.064 3.414-13.385 3.104-6.31 7.457-9.812 9.678-11.293.478-13.022 4.704-16.828 8.23-17.698a3.705 3.705 0 0 1 3.124.637c1.022.763 1.68 2.022 1.746 3.374.181 3.5 2.25 5.957 3.231 6.933 1.591.148 3.11.4 4.54.747l.13-1.228 1.093-10.61c.185-1.79 1.795-3.3 3.576-3.555 6.765-.985 21.837-4.992 22.817-21.276.113-1.796-1.404-3.602-3.152-4.031Zm-22.363 3.782a1.833 1.833 0 1 1 0-3.665 1.83 1.83 0 0 1 1.833 1.833 1.835 1.835 0 0 1-1.833 1.832Z" fill="#FFC59E"/><path d="M62.493 65.937c-.543-4.617-7.06-8.421-15.48-8.962 0 0-4.471-3.437-4.771-9.37-.05-.898-.721-1.79-1.593-1.575-2.25.553-6.07 3.442-6.26 16.635 0 0-12.239 6.174-13.123 23.974a53.504 53.504 0 0 0 26.744 7.638l-.11-2.55c-.04-.898.611-1.883 1.452-2.198l10.424-3.909s4.889.274 6.922-3.396c1.03-1.85 1.985-3.143 2.689-3.976.576-.685.567-1.664-.078-2.29-2.13-2.056-6.41-6.572-6.816-10.021Zm-6.184 4.468a1.83 1.83 0 0 1-1.831-1.831 1.832 1.832 0 1 1 1.831 1.831Z" fill="#FFC59E"/></svg>