<svg width="50" height="73" fill="none" xmlns="http://www.w3.org/2000/svg"><path fill-rule="evenodd" clip-rule="evenodd" d="M42.444 17.181a25.738 25.738 0 0 0-8.196-5.519l-.015-.007a2.244 2.244 0 0 0-2.753.85l-1.749 2.719a5.6 5.6 0 0 0-1.832-.294c-.408 0-.807.045-1.192.128l3.084-4.803.958-1.491a2.253 2.253 0 0 0-.686-3.117L21.82.354A2.253 2.253 0 0 0 20.599 0c-.746 0-1.478.369-1.907 1.039L4.357 23.355a2.253 2.253 0 0 0 .686 3.117l1.56 1.001-.708 1.107-.709 1.107-.445.693a2.253 2.253 0 0 0 .687 3.116l1.342.859a2.26 2.26 0 0 0 3.122-.685l.444-.693.71-1.107.708-1.107 1.538.987c.377.24.8.354 1.222.354.746 0 1.478-.37 1.908-1.04l5.881-9.162c.121.542.317 1.054.588 1.528.234.414.513.798.838 1.137a5.726 5.726 0 0 0 4.343 1.8c3.024-.09 5.482-2.545 5.565-5.564a5.712 5.712 0 0 0-.332-2.101 19.035 19.035 0 0 1 4.344 3.252 18.819 18.819 0 0 1 5.565 13.41c0 5.067-1.976 9.825-5.565 13.409a18.9 18.9 0 0 1-7.85 4.728 2.265 2.265 0 0 1-.671.098h-7.42a2.257 2.257 0 0 1-2.262-2.259v-.504H8.64V61c.234-.015.475-.023.709-.023h32.439c2.58-.459 4.547-2.71 4.547-5.42 0-1.672-.746-3.17-1.923-4.18a25.748 25.748 0 0 0 3.56-5.977A25.623 25.623 0 0 0 50 35.379c0-3.471-.679-6.844-2.028-10.021a25.661 25.661 0 0 0-5.528-8.177Zm-14.546 5.534a2.054 2.054 0 0 1-2.058-2.063 2.056 2.056 0 0 1 2.066-2.055c1.139 0 2.059.918 2.059 2.055a2.068 2.068 0 0 1-2.067 2.063Zm12.918 34.769c.286 0 .558-.06.799-.173a1.95 1.95 0 0 0 1.139-1.762c0-.625-.302-1.175-.762-1.529a2.267 2.267 0 0 0-.37-.218 1.928 1.928 0 0 0-2.534 2.605 1.91 1.91 0 0 0 1.728 1.077ZM26.503 48c.823 0 1.497-.73 1.497-1.623v-.754C28 44.73 27.326 44 26.503 44H1.497C.674 44 0 44.73 0 45.623v.754C0 47.27.674 48 1.497 48h25.006ZM0 73c0-5.273 3.903-9.596 8.86-9.976.234-.016.47-.024.712-.024H42v7.625C42 71.939 40.984 73 39.727 73H0Z" fill="#FFC59E"/></svg>