<svg width="77" height="77" fill="none" xmlns="http://www.w3.org/2000/svg"><path fill-rule="evenodd" clip-rule="evenodd" d="M42.613 5.98a19.963 19.963 0 0 1 28.496 0c7.855 7.979 7.855 20.958 0 28.934l-3.227 3.58a21.956 21.956 0 0 0-8.783-1.832c-5.434 0-10.355 2.056-14.237 5.338L26 22.849 42.613 5.98ZM22.13 26 41 44.986c-3.082 3.857-5.005 8.689-5.005 14.01 0 3.134.647 6.116 1.802 8.829l-3.293 3.329c-7.85 7.894-20.768 7.744-28.618-.15-7.848-7.898-7.848-20.748 0-28.644L22.13 26ZM41 58.5c0 9.03 6.992 16.398 16 17.5V41c-9.008 1.102-16 8.47-16 17.5ZM61 76V41c9.008 1.102 16 8.47 16 17.5S70.008 74.898 61 76Z" fill="#FFC59E"/></svg>