<svg width="79" height="99" fill="none" xmlns="http://www.w3.org/2000/svg"><path fill-rule="evenodd" clip-rule="evenodd" d="M46.702 9.767c-1.32-3.39-3.2-5.892-5.583-7.435C38.82.845 36.096.273 33 .618c-.877-.7-2.028-.837-2.913-.247-1.174.784-1.44 2.558-.592 3.954.848 1.396 2.494 1.893 3.668 1.11a2.37 2.37 0 0 0 .856-1.053c3.183-.194 5.645.946 7.484 3.454 2.419 3.297 3.778 9.09 3.83 16.31.026 3.588-.264 6.687-.588 8.854l4.124-4.294c.025-.396.048-.795.066-1.194.18-4.022.13-11.676-2.234-17.745ZM20.887 12.73c-1.526 2.904-1.582 5.688-.18 8.46 1.842 3.644 6.309 7.337 12.577 10.4 3.523 1.72 6.671 2.802 8.716 3.357L39.025 38a56.869 56.869 0 0 1-4.344-1.63c-3.58-1.509-10.228-4.75-14.507-9.501-2.39-2.654-3.77-5.46-4.097-8.34-.317-2.776.346-5.57 1.965-8.328-.236-1.115.135-2.252 1.027-2.834 1.183-.774 2.841-.283 3.696 1.095s.587 3.129-.596 3.903c-.391.256-.834.37-1.282.364ZM68.01 53.133c.921 1.279 4.295 5.964-.61 11.33-2.468 2.698-7.319 7.723-17.202 11.92C45.84 78.236 25.9 92.833 19.825 99L0 84.322s22.805-16.81 24.748-20.787c.857-1.755 1.127-5.023 1.418-8.542.244-2.966.504-6.11 1.143-8.678.617-2.486 1.756-5.455 6.13-5.965 1.928-.224 3.81.624 5.264 1.278h.002c.398.18.764.345 1.09.47L50.52 31.211c2.128-2.196 4.58-3.29 7.16-.729 2.58 2.562 1.689 6.175 1.689 6.175s1.649-.581 3.83 1.685c.322.333.603.69.826 1.07.816 1.382.955 3.045.412 4.948.707.303 1.685.832 2.518 1.678a5.694 5.694 0 0 1 1.156 1.67c.693 1.548.625 3.32-.205 5.278l.104.146Zm1.362 20.803c2.917-1.942 6.788-1.045 8.646 2.004 1.858 3.048 1 7.093-1.918 9.035-2.917 1.941-6.788 1.044-8.646-2.004a6.76 6.76 0 0 1-.902-4.538A36.417 36.417 0 0 1 61 74.675 45.405 45.405 0 0 0 64.624 72a32.986 32.986 0 0 0 3.97 2.548c.24-.222.5-.427.779-.612Z" fill="#FFC59E"/></svg>