<svg width="167" height="49" fill="none" xmlns="http://www.w3.org/2000/svg"><path d="M161.059 49H5.85C2.625 49 0 46.393 0 43.202V5.79C0 2.597 2.625 0 5.85 0h155.209C164.282 0 167 2.597 167 5.79v37.412c0 3.191-2.718 5.798-5.941 5.798Z" fill="#A6A6A6"/><path d="M166 43.289c0 2.603-2.124 4.711-4.751 4.711H5.758C3.132 48 1 45.892 1 43.289V5.717C1 3.116 3.132 1 5.758 1h155.489c2.629 0 4.752 2.116 4.752 4.717L166 43.29Z" fill="#000"/><path d="M37.178 23.79c-.035-3.926 3.2-5.836 3.348-5.925-1.832-2.684-4.672-3.05-5.67-3.08-2.386-.252-4.7 1.434-5.915 1.434-1.24 0-3.11-1.41-5.127-1.368-2.595.04-5.023 1.55-6.355 3.894-2.748 4.778-.698 11.801 1.935 15.664 1.317 1.892 2.856 4.004 4.87 3.93 1.97-.082 2.707-1.262 5.085-1.262 2.356 0 3.047 1.262 5.101 1.215 2.115-.035 3.447-1.9 4.718-3.81 1.522-2.168 2.133-4.304 2.157-4.413-.05-.017-4.107-1.573-4.147-6.279Zm-3.88-11.545c1.06-1.332 1.785-3.143 1.583-4.981-1.534.068-3.452 1.066-4.557 2.368-.977 1.147-1.85 3.028-1.625 4.797 1.723.13 3.493-.873 4.599-2.184Z" fill="#fff"/><path fill-rule="evenodd" clip-rule="evenodd" d="M63.17 39H66l-5.364-16h-3.298L52 39h2.755l1.477-4.7h5.388l1.55 4.7Zm-3.42-10.85 1.403 4.178H56.7l1.377-4.178c.362-1.328.625-2.333.788-3.014h.05c.41 1.582.688 2.588.836 3.014Zm18.532 8.7C79.427 35.675 80 34.075 80 32.05c0-1.812-.49-3.273-1.475-4.385-.982-1.11-2.209-1.665-3.679-1.665-1.88 0-3.282.71-4.205 2.131h-.052l-.154-1.887H68c.067 1.34.103 2.647.103 3.92V43h2.768v-6.271h.052c.718 1.126 1.897 1.69 3.539 1.69 1.52 0 2.794-.523 3.82-1.569Zm-1.923-7.568c.548.751.82 1.707.82 2.865 0 1.258-.29 2.27-.872 3.039-.58.766-1.392 1.15-2.435 1.15-.888 0-1.61-.297-2.166-.894-.556-.596-.834-1.327-.834-2.193v-1.985c0-.21.043-.479.129-.806.17-.702.534-1.27 1.09-1.704a2.961 2.961 0 0 1 1.858-.649c1.007 0 1.811.392 2.41 1.177ZM92.28 36.85c1.147-1.175 1.72-2.775 1.72-4.8 0-1.812-.492-3.273-1.473-4.385-.984-1.11-2.211-1.665-3.68-1.665-1.882 0-3.283.71-4.205 2.131h-.052l-.155-1.887H82c.067 1.34.103 2.647.103 3.92V43h2.768v-6.271h.052c.717 1.126 1.897 1.69 3.538 1.69 1.52 0 2.795-.523 3.82-1.569Zm-1.923-7.568c.548.751.822 1.707.822 2.865 0 1.258-.29 2.27-.873 3.039-.58.766-1.392 1.15-2.435 1.15-.89 0-1.613-.298-2.168-.894-.554-.596-.832-1.327-.832-2.193v-1.985c0-.21.045-.479.129-.806a2.99 2.99 0 0 1 1.088-1.704 2.965 2.965 0 0 1 1.86-.649c1.01 0 1.81.392 2.41 1.177Z" fill="#fff"/><path d="M109 34.125c0 1.404-.476 2.547-1.432 3.43-1.05.964-2.512 1.445-4.39 1.445-1.735 0-3.125-.343-4.178-1.029l.598-2.205a6.951 6.951 0 0 0 3.733 1.055c.973 0 1.73-.226 2.274-.675.541-.45.811-1.052.811-1.804 0-.67-.222-1.235-.669-1.693-.445-.458-1.187-.883-2.224-1.277-2.822-1.078-4.232-2.658-4.232-4.735 0-1.357.494-2.47 1.483-3.337.986-.867 2.302-1.3 3.947-1.3 1.467 0 2.685.262 3.658.784l-.646 2.157c-.908-.506-1.936-.76-3.085-.76-.908 0-1.618.23-2.127.687-.43.408-.646.905-.646 1.495 0 .653.246 1.192.741 1.617.43.392 1.211.816 2.345 1.274 1.386.572 2.405 1.241 3.06 2.008.653.764.979 1.721.979 2.863Zm8-5.211h-2.815v5.736c0 1.46.496 2.188 1.49 2.188.457 0 .835-.04 1.135-.122l.07 1.993c-.503.194-1.165.291-1.986.291-1.008 0-1.796-.316-2.365-.948-.567-.633-.852-1.694-.852-3.185V28.91H110v-1.97h1.677v-2.163l2.508-.778v2.941H117v1.973Z" fill="#fff"/><path fill-rule="evenodd" clip-rule="evenodd" d="M128.386 37.248c1.075-1.135 1.614-2.587 1.614-4.355 0-1.72-.521-3.125-1.565-4.212-1.092-1.121-2.538-1.681-4.336-1.681-1.865 0-3.349.568-4.448 1.705C118.549 29.84 118 31.3 118 33.083c0 1.704.534 3.117 1.601 4.237S122.1 39 123.897 39c1.866 0 3.362-.583 4.489-1.752Zm-1.94-7.002c.489.758.73 1.668.73 2.73 0 1.06-.253 1.979-.755 2.752-.588.933-1.404 1.4-2.443 1.4-1.061 0-1.884-.458-2.472-1.376-.489-.758-.73-1.668-.73-2.729 0-1.093.241-2.017.73-2.778.571-.917 1.402-1.376 2.496-1.376 1.057 0 1.873.458 2.444 1.377Z" fill="#fff"/><path d="M139 29.539a5.598 5.598 0 0 0-.916-.072c-1.023 0-1.814.346-2.37 1.041-.484.613-.727 1.387-.727 2.322V39h-2.905l.027-8.055c0-1.356-.037-2.59-.109-3.702h2.532l.106 2.25h.081a4.06 4.06 0 0 1 1.453-1.863 3.784 3.784 0 0 1 2.101-.63c.269 0 .512.017.727.048v2.491Z" fill="#fff"/><path fill-rule="evenodd" clip-rule="evenodd" d="M150.909 33.639c.062-.317.091-.703.091-1.162 0-1.438-.332-2.65-.992-3.628-.834-1.233-2.061-1.849-3.683-1.849-1.651 0-2.963.616-3.934 1.849-.928 1.154-1.391 2.602-1.391 4.34 0 1.771.498 3.182 1.493 4.234.996 1.05 2.366 1.577 4.111 1.577 1.45 0 2.707-.237 3.772-.712l-.391-1.778c-.912.364-1.925.545-3.035.545-1.004 0-1.821-.27-2.453-.806-.697-.6-1.059-1.472-1.088-2.61h7.5Zm-2.778-3.796c.339.554.502 1.21.485 1.97v-.002h-5.207c.076-.773.323-1.438.739-1.992.508-.696 1.173-1.044 1.99-1.044.895 0 1.56.356 1.993 1.068Z" fill="#fff"/><path d="M53.209 9.575c.268-.162.572-.297.913-.408.34-.111.74-.167 1.202-.167.742 0 1.328.177 1.757.528.428.352.643.827.643 1.425 0 .476-.143.874-.43 1.196a2.081 2.081 0 0 1-1.098.643v.034c.245.04.477.106.695.202.22.096.411.224.575.385A1.742 1.742 0 0 1 58 14.69c0 .429-.087.789-.26 1.08a2.168 2.168 0 0 1-.677.713 2.848 2.848 0 0 1-.936.396 4.57 4.57 0 0 1-1.035.121c-.368 0-.732-.04-1.092-.115a3.393 3.393 0 0 1-1-.379l.31-.954c.2.1.457.196.77.288.315.093.632.138.954.138.529 0 .938-.119 1.224-.356.287-.238.432-.555.432-.953 0-.27-.058-.489-.173-.661a1.26 1.26 0 0 0-.45-.41 1.96 1.96 0 0 0-.614-.205 4.064 4.064 0 0 0-.672-.058h-.518v-.945h.518c.237 0 .457-.03.66-.092.203-.06.38-.147.53-.258.149-.111.266-.244.35-.397a1.07 1.07 0 0 0 .126-.518c0-.345-.123-.615-.369-.81-.245-.195-.574-.294-.988-.294-.283 0-.568.046-.85.138a6.278 6.278 0 0 0-.76.298l-.271-.882Z" fill="#fff"/><path fill-rule="evenodd" clip-rule="evenodd" d="m63.947 16.207.08.662v.002H65c-.046-.324-.07-.781-.07-1.373V13.38c0-1.587-.638-2.38-1.912-2.38-.667 0-1.224.166-1.672.497l.22.84a2.02 2.02 0 0 1 1.27-.427c.675 0 1.011.379 1.011 1.136v.107c-.909 0-1.61.179-2.105.538-.495.358-.742.898-.742 1.615 0 .244.036.47.11.675a1.6 1.6 0 0 0 .31.533c.134.15.291.269.472.355.18.087.38.131.601.131.623 0 1.097-.265 1.424-.793h.03Zm-1.421-1.93c.295-.181.746-.272 1.35-.272v.887a1.218 1.218 0 0 1-.324.841 1.075 1.075 0 0 1-.333.243.923.923 0 0 1-.399.09.691.691 0 0 1-.529-.225c-.14-.15-.209-.375-.209-.675 0-.41.148-.707.444-.889Z" fill="#fff"/><path d="M72 11v1.098h-2.607V17H68v-6h4Z" fill="#fff"/><path fill-rule="evenodd" clip-rule="evenodd" d="M78.795 15.07c.136-.369.205-.776.205-1.222 0-.423-.066-.81-.198-1.16a2.715 2.715 0 0 0-.545-.9 2.467 2.467 0 0 0-.814-.581A2.496 2.496 0 0 0 76.424 11c-.94 0-1.641.335-2.102 1.003h-.027l-.078-.888H73a40.926 40.926 0 0 1 .05 1.845V19h1.385v-2.95h.027c.36.53.949.795 1.77.795.41 0 .783-.074 1.121-.22.337-.145.628-.35.871-.61.245-.261.434-.576.571-.946Zm-1.314-1.942c.073.234.11.49.11.766 0 .6-.148 1.08-.439 1.437-.29.357-.696.536-1.218.536-.222 0-.424-.036-.608-.11a1.373 1.373 0 0 1-.781-.766 1.48 1.48 0 0 1-.11-.576v-.934a1.472 1.472 0 0 1 .47-1.061 1.57 1.57 0 0 1 .492-.312c.19-.076.382-.115.578-.115.248 0 .473.048.674.144.2.096.373.227.513.392s.247.365.32.599Z" fill="#fff"/><path d="m85 11-1.584 3.819c-.377.906-.745 1.648-1.1 2.227-.357.578-.697.998-1.023 1.264-.48.377-.991.608-1.533.69l-.334-1.03c.36-.083.703-.246 1.03-.487.325-.242.586-.544.785-.907.069-.12.102-.203.102-.249a.928.928 0 0 0-.077-.26L79 11h1.531l1.185 3.071c.061.144.12.307.18.488.061.18.125.382.194.6h.027a6.79 6.79 0 0 0 .14-.46c.052-.184.121-.397.206-.64L83.519 11H85Zm2.894 2.508h.511c.376 0 .667-.078.871-.236.205-.159.308-.352.308-.581a.69.69 0 0 0-.262-.567c-.173-.142-.416-.214-.723-.214-.2 0-.399.038-.599.112a2.945 2.945 0 0 0-.56.278l-.286-.827c.287-.18.572-.305.858-.372a3.7 3.7 0 0 1 .855-.101c.228 0 .455.026.683.077.228.051.432.138.61.26.177.122.324.281.435.48.113.197.17.44.17.734 0 .181-.031.341-.094.48a1.33 1.33 0 0 1-.588.626 1.68 1.68 0 0 1-.384.148v.035c.163.025.323.072.477.143a1.394 1.394 0 0 1 .713.692c.074.162.111.345.111.55 0 .34-.07.623-.215.851a1.63 1.63 0 0 1-.55.545c-.22.134-.466.23-.732.29a3.627 3.627 0 0 1-1.69-.023 2.64 2.64 0 0 1-.813-.35l.289-.84c.177.111.38.204.609.278.23.075.463.113.702.113.375 0 .665-.084.867-.254.2-.17.301-.38.301-.633a.8.8 0 0 0-.101-.42.79.79 0 0 0-.287-.278 1.27 1.27 0 0 0-.431-.148 3.171 3.171 0 0 0-.533-.041h-.522v-.807Zm7.296-2.506v2.123c0 .486-.008.923-.024 1.308a96.78 96.78 0 0 1-.059 1.222l.024.024.433-.92c.144-.3.288-.607.434-.92L97.384 11H99v5.999h-1.179v-2.123c0-.444.012-.888.03-1.332.019-.446.04-.894.063-1.347h-.058c-.13.37-.261.691-.393.964-.13.27-.261.55-.39.84-.24.493-.477.987-.713 1.48A67.475 67.475 0 0 1 95.616 17H94v-5.998h1.19ZM105 11v1.098h-1.844V17h-1.324v-4.902H100V11h5Z" fill="#fff"/><path fill-rule="evenodd" clip-rule="evenodd" d="M111.988 14.053c.007-.1.012-.205.012-.315 0-.41-.054-.784-.163-1.12a2.504 2.504 0 0 0-.469-.865 2.044 2.044 0 0 0-.739-.557 2.335 2.335 0 0 0-.968-.196c-.401 0-.767.08-1.095.237a2.518 2.518 0 0 0-.839.653 3.016 3.016 0 0 0-.538.978 3.837 3.837 0 0 0-.189 1.227c0 .443.063.841.189 1.197.127.356.312.66.55.913.24.253.533.449.88.587.348.138.741.208 1.179.208.727 0 1.355-.119 1.888-.356l-.196-.89a4.109 4.109 0 0 1-1.516.273c-.524 0-.948-.15-1.268-.445-.319-.296-.486-.718-.503-1.263h3.75c.016-.078.028-.167.035-.266Zm-1.499-1.743c.213.28.318.646.318 1.097h-2.603c.039-.444.186-.807.44-1.092.255-.284.561-.426.925-.426.401 0 .708.142.92.421ZM117 11.133c.238-.04.538-.072.906-.097.368-.025.743-.036 1.128-.036.244 0 .521.015.827.042.306.027.6.092.875.192.28.1.511.25.699.451.188.201.284.473.284.817a1.124 1.124 0 0 1-.362.842c-.111.104-.238.19-.381.258-.142.068-.29.118-.447.15l.013.035c.432.072.785.225 1.054.458s.404.553.404.962c0 .409-.116.733-.342.974-.23.24-.511.421-.847.541-.336.12-.689.197-1.061.23-.371.03-.704.048-.997.048-.329 0-.65-.007-.963-.025a32.584 32.584 0 0 1-.79-.048v-5.794Zm1.274 2.332h.673c.205 0 .399-.013.583-.042.184-.027.345-.072.484-.131a.826.826 0 0 0 .326-.24.584.584 0 0 0 .116-.368.616.616 0 0 0-.339-.582c-.225-.124-.577-.186-1.059-.186-.137 0-.259.004-.362.012l-.422.036v1.501Zm.409 2.62c-.109-.008-.246-.02-.409-.036v-1.743h.698c.517 0 .924.063 1.227.19.301.128.454.359.454.693a.707.707 0 0 1-.143.46.94.94 0 0 1-.373.275 1.85 1.85 0 0 1-.515.138 5.04 5.04 0 0 1-.939.023Z" fill="#fff"/></svg>