<svg width="80" height="63" fill="none" xmlns="http://www.w3.org/2000/svg"><path d="M2.41 46.78c1.263-.699 1.756.441.937.673-1.811.513-1.243 2.99.568 3.467 1.3.342 4.868-.127 5.752-.35.177-.077 1.901-.148 3.677-.166 1.777-.019 4.604.744 5.357.854.754.11 1.983.33 2.745.34.763.01 2.014-.478 2.037-.483.022-.004.085-.073.233-.248.148-.174.637-.519.672-.514.036.005.09.129.117.35a.562.562 0 0 1-.09.376s.696-.184.696-.074-.184.432-.202.464c-.018.032.718.597.901.86.184.261.113.247.166.555.054.308.525 1.089.543 1.167.018.078.005.092-.072.156-.076.064-.062.027-.152.115-.09.087-.413.487-.79.67-.376.184-.44.028-.735-.146-.296-.175-1.677.046-1.938.248-.213.165-.672.613-.832.77l-.056.057s-.072.11-.161.532c-.09.423-.054.846.054 1.544.107.698 1.229 2.315 1.399 2.453.17.138.475.285.69.524.216.239.027.386-.206.46-.233.073-.807-.047-.986-.12-.18-.074-.27-.588-.862-1.011-.592-.423-1.524-1.194-1.668-1.58-.144-.386-.27-1.452-.27-1.452s-.125.294-.52.79c-.394.496-1.31 1.323-1.31 1.672 0 .35.108.92.234 1.14.126.22.305.238.466.294l.083.027a.636.636 0 0 1 .402.322c.143.257-.018.33-.287.33-.27 0-.646.13-1.112-.055-.467-.183-1.328-1.745-1.525-2.131-.198-.386.233-1.102.412-1.433.18-.331.43-.772.43-.772s-1.65.018-2.51-.202c-.862-.22-1.85-.294-1.85-.294s-.072.404-.216.992c-.143.588-.825 1.268-.897 1.489-.072.22.395.68.664.974.27.293.808.496 1.023.643.215.147.466.385.322.68-.143.294-.268.036-.52.091-.25.055-.879.147-1.31.055-.43-.092-.448-.643-1.022-1.139-.574-.496-1.166-1.047-1.112-1.378.054-.33.125-1.819.107-1.91-.018-.093-.753.514-1.542.9-.79.385-2.404.78-2.503 1.047-.099.266-.422 1.498-.368 1.865.054.367.153.579.251.772l.042.081c.057.114.048.128-.042.213-.107.1-.888.009-1.058-.23-.17-.239-.484-1.69-.368-2.012.117-.322.745-2.435.978-2.618.233-.184 1.076-.699 1.543-1.856.37-.917.255-2.33.414-3.133-2.562-.025-5.812.243-6.233-3.382-.117-1.011.535-1.84 1.41-2.323ZM50.982 0l22.76 55.148c1.108 2.684 3.078 4.026 5.908 4.026H80v1.882H51.42v-1.882c5.31-.175 7.965-1.43 7.965-3.764 0-.642-.116-1.24-.35-1.794l-4.201-10.11H34.306l-3.15 8.052c-.41 1.05-.614 2.072-.614 3.064 0 2.86 2.335 4.377 7.003 4.552v1.882l-11.623.003c.815-2.353 2.636-6.986 2.775-7.36.18-.483.442-1.15.438-1.639-.005-.489.142-1.215-.129-2.139-.271-.924-.594-1.715-.642-2.217-.047-.501.105-1.824.156-2.668.05-.844.278-1.417.384-1.525.105-.107.07-.195.361-.215.29-.02.453-.08.87-.038.418.041.887-.095 1.242-.111.354-.016.73.01 1.2-.247.468-.258.55-.485.735-.699.186-.213.418-.586.495-.792.077-.205.121-.333-.266-.419-.387-.086-1.007-.394-1.436-.48-.43-.085-.949-.194-1.16-.39-.21-.197-.306-.435-.457-.585-.15-.15-.235-.227-.577-.341-.341-.114-.925-.464-1.135-.519-.21-.054-.479-.114-.537-.23-.057-.117-.401-.89-.544-1.247-.144-.357-.422-.963-.53-.95-.107.013-.208.953-.432 1.514-.224.56-.548 1.085-.56 1.373-.013.288-.292.743-.51 1.108-.22.364-.959 1.738-1.247 2.728-.289.99-1.01 2.233-1.378 2.6-.368.368-2.448 1.669-2.996 2.045-.164.113-.29.201-.405.278L39.288 0h11.694Zm-6.74 17.857-8.579 22.147H53.39l-9.147-22.147Z" fill="#59443F"/></svg>