<svg width="25" height="25" fill="none" xmlns="http://www.w3.org/2000/svg"><path fill-rule="evenodd" clip-rule="evenodd" d="M0 12.5C0 5.607 5.607 0 12.5 0 19.392 0 25 5.607 25 12.5 25 19.392 19.392 25 12.5 25 5.607 25 0 19.392 0 12.5Zm2.66 0c0 5.427 4.414 9.84 9.84 9.84s9.84-4.413 9.84-9.84c0-5.426-4.414-9.84-9.84-9.84S2.66 7.074 2.66 12.5Z" fill="#FFC59E"/><path d="M19.015 12.114h-5.618V5.36a1.03 1.03 0 0 0-2.058 0v7.783c0 .569.46 1.03 1.03 1.03h6.646a1.03 1.03 0 0 0 0-2.059Z" fill="#FFC59E"/></svg>